<svg width="304" height="263" viewBox="0 0 304 263" fill="none" xmlns="http://www.w3.org/2000/svg">
<path d="M232.166 92.6247C235.652 96.7284 239.75 101.43 241.274 102.28C243.02 103.253 244.077 107.336 244.077 107.336L236.359 114.576C234.537 112.935 235.096 112.593 232.363 109.616C231.734 108.93 231.122 107.1 229.696 106.034C228.042 104.798 226.129 103.391 224.176 101.967C225.147 97.4276 228.062 94.0709 232.166 92.6247Z" fill="#CBCBCB"/>
<path d="M215.716 55.6616C216.073 57.8195 216.223 57.8954 217.595 65.7897C218.896 73.278 220.061 78.4109 220.061 78.4109C220.061 78.4109 226.647 86.0967 230.684 90.8753C231.158 91.4367 231.656 92.0246 232.166 92.625C228.062 94.0713 225.147 97.4279 224.176 101.968C218.882 98.1079 213.293 94.1214 211.747 93.0479C205.37 88.6179 204.629 87.5555 202.521 81.5031C199.294 72.234 196.787 63.1882 196.164 60.348L203.481 44.1005C209.66 45.1025 214.343 47.3606 215.716 55.6616Z" fill="#004D99"/>
<mask id="mask0_271_15504" style="mask-type:luminance" maskUnits="userSpaceOnUse" x="196" y="44" width="37" height="58">
<path d="M196.164 44.1007H232.166V101.967H196.164V44.1007Z" fill="white"/>
</mask>
<g mask="url(#mask0_271_15504)">
<g opacity="0.199997">
<path d="M215.716 55.6616C216.073 57.8195 216.223 57.8954 217.595 65.7897C218.896 73.278 220.061 78.4109 220.061 78.4109C220.061 78.4109 226.647 86.0967 230.684 90.8753C231.158 91.4367 231.656 92.0246 232.166 92.625C228.062 94.0713 225.147 97.4279 224.176 101.968C218.882 98.1079 213.293 94.1214 211.747 93.0479C205.37 88.6179 204.629 87.5555 202.521 81.5031C199.294 72.234 196.787 63.1882 196.164 60.348L203.481 44.1005C209.66 45.1025 214.343 47.3606 215.716 55.6616Z" fill="black"/>
</g>
</g>
<path d="M114.737 118.163C113.499 118.272 105.105 120.216 105.105 120.216C105.105 120.216 113.655 120.225 114.94 120.089L114.737 118.163Z" fill="white"/>
<path d="M117.954 121.734C117.214 123.4 115.743 123.555 114.671 122.081C113.599 120.606 113.33 118.06 114.071 116.394C114.811 114.728 116.281 114.573 117.354 116.048C118.427 117.522 118.695 120.068 117.954 121.734Z" fill="#004D99"/>
<path d="M116.459 120.052L116.503 120.049C118.458 119.838 242.558 106.64 244.313 106.45L244.329 106.449C244.478 106.434 244.613 106.327 244.704 106.119C244.881 105.713 244.809 105.098 244.549 104.741C244.531 104.716 244.513 104.695 244.492 104.674C244.474 104.656 244.457 104.637 244.436 104.62C244.332 104.527 244.222 104.49 244.115 104.501C242.618 104.662 119.168 117.792 116.165 118.114C116.145 118.115 116.126 118.117 116.106 118.121C115.998 118.146 115.897 118.231 115.827 118.379C115.723 118.594 115.706 118.894 115.761 119.183C115.798 119.388 115.875 119.59 115.985 119.75C116.131 119.963 116.304 120.064 116.459 120.052Z" fill="white"/>
<path d="M251.918 107.489C252.653 105.836 252.386 103.31 251.321 101.846C250.79 101.114 250.159 100.787 249.569 100.85C248.426 100.97 248.115 101.279 247.453 102.007C246.79 102.734 246.34 102.975 245.609 103.053C240.989 103.54 233.807 104.299 231.034 104.591C229.983 104.668 229.24 103.57 227.992 104.173C226.849 104.725 226.788 106.244 226.897 107.28C227.007 108.317 227.384 109.789 228.617 110.091C229.983 110.425 230.474 109.151 231.55 109.037C234.357 108.741 241.484 107.988 246.079 107.503C246.81 107.426 247.3 107.568 248.1 108.141C248.901 108.715 249.269 108.951 250.412 108.83C251.002 108.768 251.55 108.316 251.918 107.489Z" fill="#004D99"/>
<mask id="mask1_271_15504" style="mask-type:luminance" maskUnits="userSpaceOnUse" x="226" y="100" width="27" height="11">
<path d="M226.859 100.843H252.333V110.147H226.859V100.843Z" fill="white"/>
</mask>
<g mask="url(#mask1_271_15504)">
<g opacity="0.149994">
<path d="M251.918 107.49C252.653 105.836 252.386 103.31 251.321 101.846C250.79 101.115 250.159 100.787 249.569 100.85C248.426 100.97 248.115 101.279 247.453 102.007C246.79 102.735 246.34 102.976 245.609 103.053C240.989 103.541 233.807 104.299 231.034 104.591C229.983 104.668 229.24 103.57 227.992 104.173C226.849 104.725 226.788 106.244 226.897 107.28C227.007 108.317 227.384 109.789 228.617 110.091C229.983 110.425 230.474 109.151 231.55 109.038C234.357 108.741 241.484 107.988 246.079 107.504C246.81 107.426 247.3 107.568 248.1 108.141C248.901 108.715 249.269 108.951 250.412 108.831C251.002 108.769 251.55 108.316 251.918 107.49Z" fill="black"/>
</g>
</g>
<path d="M251.203 102.118C250.718 101.453 250.145 101.156 249.61 101.212C249.073 101.269 248.575 101.68 248.241 102.432C247.573 103.935 247.815 106.231 248.782 107.562C249.266 108.227 249.84 108.525 250.376 108.468C250.911 108.411 251.41 108 251.744 107.248C252.413 105.746 252.17 103.449 251.203 102.118Z" fill="#004D99"/>
<path d="M246.03 107.508C245.821 108.543 245.446 111.711 244.42 112.78C243.395 113.85 241.578 113.247 241.578 113.247C241.578 113.247 240.008 115.602 237.867 114.502C237.867 114.502 236.745 115.856 234.751 114.569C233.181 115.243 232.93 114.928 231.513 113.53C230.097 112.131 229.684 111.88 229.748 110.568C229.813 109.257 230.665 107.455 231.726 106.587C232.787 105.717 234.484 105.728 234.288 106.749C235.253 105.627 237.189 104.143 237.854 105.798C238.995 104.488 240.736 104.298 242.178 105.573C242.824 106.143 241.382 108.048 241.382 108.048C243.193 107.779 244.872 107.556 246.03 107.508Z" fill="#CBCBCB"/>
<path d="M234.477 114.241C233.609 113.282 232.319 112.192 232.3 110.853C232.378 110.242 232.765 109.582 233.067 108.957L234.085 107.063C231.514 110.07 230.722 111.824 234.477 114.241Z" fill="#1A2E35"/>
<path d="M241.426 113.149C240.357 111.302 239.702 109.204 240.616 107.199L241.349 105.187C239.343 107.872 239.108 110.567 241.426 113.149Z" fill="#1A2E35"/>
<path d="M237.724 114.261C237.18 113.082 236.388 111.869 236.436 110.555C236.596 109.271 237.147 107.959 237.463 106.676C235.775 109.647 235.271 111.53 237.724 114.261Z" fill="#1A2E35"/>
<path d="M234.621 95.487C236.246 97.1226 239.243 98.2211 241.758 99.1332C244.273 100.045 244.928 101.15 244.858 103.271C244.788 105.393 242.122 107.886 241.516 109.609C240.911 111.332 238.725 109.898 238.709 107.813C238.694 105.729 239.151 104.447 239.151 104.447L234.621 95.487Z" fill="#CBCBCB"/>
<path d="M101.858 135.943L208.252 195.908L269.503 232.733C273.425 234.997 277.56 236.864 281.853 238.307C283.611 238.899 285.572 239.558 287.53 240.216C293.576 242.248 297.55 242.579 301.206 240.468C303.018 239.422 303.995 237.834 303.991 236.32C303.989 235.948 303.99 234.465 303.99 234.087C303.993 232.542 302.973 231.071 300.767 230.329L295.091 228.421C290.798 226.977 286.76 225.078 282.738 222.845L218.884 187.441L115.095 126.056L101.855 133.7L101.858 135.943Z" fill="#004D99"/>
<mask id="mask2_271_15504" style="mask-type:luminance" maskUnits="userSpaceOnUse" x="101" y="126" width="203" height="116">
<path d="M101.852 126.057H303.987V241.904H101.852V126.057Z" fill="white"/>
</mask>
<g mask="url(#mask2_271_15504)">
<g opacity="0.300003">
<path d="M101.854 135.943L208.249 195.908L269.499 232.733C273.421 234.997 277.556 236.864 281.849 238.307C283.607 238.899 285.568 239.558 287.526 240.216C293.572 242.248 297.546 242.579 301.202 240.468C303.015 239.422 303.991 237.834 303.987 236.32C303.986 235.948 303.986 234.465 303.986 234.086C303.989 232.541 302.97 231.071 300.763 230.329L295.087 228.421C290.794 226.977 286.656 225.109 282.734 222.844L218.88 187.441L115.091 126.056L101.852 133.7L101.854 135.943Z" fill="black"/>
</g>
</g>
<path d="M287.528 237.973C293.574 240.004 297.548 240.335 301.204 238.224C304.86 236.114 305.131 231.796 300.767 230.329L295.091 228.421C290.798 226.977 286.66 225.109 282.738 222.844L218.884 187.44L115.095 126.056L101.855 133.7L208.269 193.675L269.501 230.489C273.423 232.754 277.558 234.62 281.85 236.064C283.608 236.655 285.57 237.315 287.528 237.973Z" fill="#004D99"/>
<mask id="mask3_271_15504" style="mask-type:luminance" maskUnits="userSpaceOnUse" x="249" y="215" width="28" height="8">
<path d="M249.219 215.069H276.655V222.781H249.219V215.069Z" fill="white"/>
</mask>
<g mask="url(#mask3_271_15504)">
<g opacity="0.399994">
<path d="M268.711 215.069L276.654 219.473L256.677 222.781L256.401 222.615L249.219 218.298L268.711 215.069Z" fill="white"/>
</g>
</g>
<mask id="mask4_271_15504" style="mask-type:luminance" maskUnits="userSpaceOnUse" x="144" y="154" width="28" height="9">
<path d="M144.875 154.826H171.289V162.369H144.875V154.826Z" fill="white"/>
</mask>
<g mask="url(#mask4_271_15504)">
<g opacity="0.399994">
<path d="M163.734 154.826L171.288 159.294L152.718 162.37L144.875 157.949L163.734 154.826Z" fill="white"/>
</g>
</g>
<mask id="mask5_271_15504" style="mask-type:luminance" maskUnits="userSpaceOnUse" x="258" y="220" width="24" height="6">
<path d="M258.332 220.45H281.327V225.419H258.332V220.45Z" fill="white"/>
</mask>
<g mask="url(#mask5_271_15504)">
<g opacity="0.399994">
<path d="M260.679 225.187L258.332 223.776L278.417 220.45L281.328 222.064L261.066 225.419L260.679 225.187Z" fill="white"/>
</g>
</g>
<mask id="mask6_271_15504" style="mask-type:luminance" maskUnits="userSpaceOnUse" x="139" y="152" width="23" height="5">
<path d="M139.973 152.031H161.78V156.804H139.973V152.031Z" fill="white"/>
</mask>
<g mask="url(#mask6_271_15504)">
<g opacity="0.399994">
<path d="M161.78 153.669L142.847 156.804L139.973 155.184L159.011 152.031L161.78 153.669Z" fill="white"/>
</g>
</g>
<path d="M301.203 238.225C303.923 236.811 305.278 233.092 302.377 231.082C301.578 230.498 300.618 230.217 299.709 229.9C296.384 228.761 291.923 227.29 288.81 225.803C282.766 222.961 274.334 217.869 268.348 214.65C260.695 210.338 224.346 190.215 217.422 186.261C203.015 177.69 181.652 165.258 167.194 156.66L115.094 126.056L167.052 156.902C181.524 165.594 202.755 178.069 217.159 186.717C223.792 190.636 260.701 210.808 268.16 214.981C274.188 218.187 282.57 223.218 288.695 226.058C291.832 227.524 296.361 228.933 299.664 230.032C301.477 230.547 303.512 231.44 303.903 233.483C304.236 235.459 302.86 237.289 301.203 238.225Z" fill="#004D99"/>
<mask id="mask7_271_15504" style="mask-type:luminance" maskUnits="userSpaceOnUse" x="115" y="126" width="189" height="113">
<path d="M115.094 126.057H304.001V238.226H115.094V126.057Z" fill="white"/>
</mask>
<g mask="url(#mask7_271_15504)">
<g opacity="0.300003">
<path d="M301.203 238.225C303.923 236.811 305.278 233.092 302.377 231.082C301.578 230.498 300.618 230.217 299.709 229.9C296.384 228.761 291.923 227.29 288.81 225.803C282.766 222.961 274.334 217.869 268.348 214.65C260.695 210.338 224.346 190.215 217.422 186.261C203.015 177.69 181.652 165.258 167.194 156.66L115.094 126.056L167.052 156.902C181.524 165.594 202.755 178.069 217.159 186.717C223.792 190.636 260.701 210.808 268.16 214.981C274.188 218.187 282.57 223.218 288.695 226.058C291.832 227.524 296.361 228.933 299.664 230.032C301.477 230.547 303.512 231.44 303.903 233.483C304.236 235.459 302.86 237.289 301.203 238.225Z" fill="black"/>
</g>
</g>
<path d="M284.043 233.684C283.397 234.23 283.397 234.836 284.043 235.035C284.689 235.235 285.737 234.954 286.384 234.408C287.03 233.862 287.03 233.257 286.384 233.057C285.737 232.857 284.689 233.137 284.043 233.684Z" fill="#CBCBCB"/>
<path d="M290.664 235.732C290.018 236.278 290.018 236.883 290.664 237.083C291.31 237.283 292.358 237.002 293.005 236.456C293.651 235.909 293.651 235.305 293.005 235.105C292.358 234.905 291.31 235.185 290.664 235.732Z" fill="#CBCBCB"/>
<path d="M288.957 229.407C288.311 229.953 288.311 230.558 288.957 230.758C289.603 230.958 290.651 230.677 291.298 230.131C291.944 229.584 291.944 228.979 291.298 228.78C290.651 228.579 289.603 228.86 288.957 229.407Z" fill="#CBCBCB"/>
<path d="M295.578 231.455C294.932 232.002 294.932 232.607 295.578 232.806C296.224 233.006 297.272 232.725 297.919 232.179C298.565 231.633 298.565 231.028 297.919 230.828C297.272 230.628 296.224 230.908 295.578 231.455Z" fill="#CBCBCB"/>
<path d="M190.922 164.047C188.36 164.047 176.619 165.142 173.801 173.33L183.745 179.078" fill="#CBCBCB"/>
<path d="M193.736 173.26V167.552C193.736 164.4 191.5 163.136 188.741 164.729C185.982 166.322 183.746 170.179 183.746 173.346V179.079L193.736 173.26Z" fill="#1A2E35"/>
<path d="M194.578 174.086L185.176 179.563L197.652 186.551L205.931 180.912L194.578 174.086Z" fill="#CBCBCB"/>
<path d="M213.716 192.077L201.595 185.079L199.605 186.434L211.726 193.432L213.716 192.077ZM205.83 182.242L203.84 183.597L215.96 190.594L217.95 189.239L205.83 182.242Z" fill="white"/>
<path d="M223.867 200.707L231.507 195.845L231.1 193.447L221.588 188.441L214.883 192.973L215.289 195.37L223.867 200.707Z" fill="#1A2E35"/>
<path d="M223.461 198.309L223.868 200.707L231.507 195.845L231.1 193.447L223.461 198.309Z" fill="#2B454E"/>
<path d="M231.099 193.447L221.587 188.441L214.883 192.973L223.46 198.309L231.099 193.447Z" fill="#CBCBCB"/>
<path d="M228.381 193.601C225.949 192.241 223.211 190.755 222.45 190.6C221.688 190.444 218.354 192.45 218.799 193.153C219.244 193.858 223.488 197.159 223.488 197.159C223.488 197.159 219.244 193.579 219.613 192.94C219.982 192.301 221.571 191.329 222.181 191.189C222.873 191.031 228.381 193.601 228.381 193.601Z" fill="#2B454E"/>
<path d="M150.928 81.1519L188.74 73.3335L187.024 87.026C187.024 87.026 210.46 99.5213 220.939 109.184C228.083 115.772 228.711 121.627 223.543 133.357C219.646 142.2 205.328 168.423 205.328 168.423C205.328 168.423 195.655 168.331 192.437 159.758C193.788 154.843 194.124 153.391 196.142 141.653C197.26 135.156 198.261 131.691 199.988 128.439C199.988 128.439 155.114 113.132 146.242 106.554C137.74 100.251 136.349 93.376 146.682 81.4805L150.928 81.1519Z" fill="#0E4990"/>
<path d="M151.281 87.5707L184.087 90.43C183.566 95.8474 184.73 104.57 169.525 113.686L199.987 128.439C199.987 128.439 165.916 116.817 151.281 109.474V87.5707Z" fill="#1A2E35"/>
<path d="M186.891 177.063C187.1 178.82 187.238 179.336 187.61 180.03C187.981 180.724 189.218 182.386 191.894 183.622C194.631 184.887 197.263 185.997 200.985 189.166C203.178 191.034 206.152 194.642 211.247 196.277C216.341 197.913 221.372 196.754 224.602 195.36C227.832 193.966 228.531 192.022 228.421 191.096L186.891 177.063Z" fill="#1A2E35"/>
<path d="M219.254 181.129C214.688 183.461 212.661 185.655 209.271 182.318C205.882 178.981 200.685 171.72 200.447 167.827C200.276 165.03 200.265 161.297 202.129 158.963C203.755 156.925 213.234 154.752 213.963 156.563C214.692 158.374 211.56 163.534 211.224 166.049C210.887 168.565 213.907 175.44 219.254 181.129Z" fill="#709DD2"/>
<path d="M213.439 159.871C213.937 158.496 214.247 157.271 213.961 156.563C213.232 154.752 203.753 156.924 202.127 158.962C201.253 160.058 200.8 161.464 200.574 162.934C201.399 160.168 204.276 158.762 206.369 158.052C208.471 157.339 211.944 156.669 213.053 157.257C213.658 157.577 213.904 158.65 213.439 159.871Z" fill="#004D99"/>
<path d="M187.86 178.463C188.161 178.982 188.597 179.624 189.006 180.047C190.071 181.152 191.313 182.107 192.732 182.721C196.499 184.332 200.156 186.898 203.377 189.873C205.874 192.179 209.968 195.904 217.393 195.741C224.83 195.563 228.42 191.101 228.42 191.101C228.42 191.101 230.999 185.465 225.731 182.489C222.62 180.729 219.74 178.859 217.202 176.785C216.983 176.621 216.765 176.43 216.547 176.252C216.069 175.843 215.619 175.447 215.182 175.051C214.732 174.629 214.274 174.217 213.851 173.781C214.833 176.224 216.132 177.42 217.361 178.607C218.343 179.563 212.957 182.298 211.497 181.357C210.037 180.428 204.99 173.946 202.643 169.62C200.896 165.553 200.855 164.598 200.855 162.537C200.855 162.332 200.842 162.141 200.814 161.964C200.637 160.79 197.154 159.508 195.939 159.125C195.871 159.098 195.816 159.071 195.748 159.057C195.584 159.002 195.448 158.962 195.325 158.962C195.312 158.962 195.298 158.962 195.284 158.948C195.052 158.948 194.875 159.016 194.575 159.207C194.479 159.275 194.383 159.33 194.302 159.412C193.974 159.644 193.661 159.903 193.374 160.176C192.623 160.886 191.981 161.705 191.436 162.578C190.917 163.438 190.494 164.352 190.071 165.267C189.253 167.014 188.433 168.788 188.01 170.685C187.588 172.581 187.588 174.533 187.574 176.484C187.574 177.153 187.519 177.877 187.86 178.463Z" fill="#004D99"/>
<mask id="mask8_271_15504" style="mask-type:luminance" maskUnits="userSpaceOnUse" x="194" y="158" width="26" height="26">
<path d="M194.121 158.729H219.182V183.891H194.121V158.729Z" fill="white"/>
</mask>
<g mask="url(#mask8_271_15504)">
<g opacity="0.300003">
<path d="M194.121 158.73L194.299 159.412L198.02 163.953C198.976 167.379 199.701 170.473 203.503 176.043C207.23 181.503 208.914 182.94 210.989 183.663C214.142 184.728 218.345 181.794 219 180.347C219.505 179.242 218.918 178.369 217.772 177.249C217.581 177.099 217.39 176.949 217.198 176.785C216.98 176.608 216.761 176.43 216.543 176.253C216.066 175.844 215.616 175.447 215.179 175.052C214.728 174.629 214.27 174.204 213.848 173.781C214.83 176.224 216.129 177.42 217.357 178.607C218.34 179.563 212.954 182.298 211.494 181.357C210.033 180.429 204.987 173.947 202.64 169.62C200.893 165.554 200.852 164.598 200.852 162.537C200.852 162.333 200.839 162.142 200.812 161.964C200.688 160.749 197.328 159.508 195.936 159.125C195.745 159.058 195.54 159.002 195.322 158.962C195.308 158.962 195.295 158.962 195.281 158.948C194.981 158.893 194.64 158.826 194.285 158.77C194.217 158.757 194.176 158.744 194.121 158.73Z" fill="#F5F5F5"/>
</g>
</g>
<path d="M200.9 164.092C200.857 163.6 200.852 163.113 200.85 162.541C200.843 160.48 200.678 159.659 198.107 158.23C196.419 157.292 193.519 155.643 193.519 155.643L193.898 153.98C193.898 153.98 192.359 153.72 191.946 155.66C191.567 157.437 190.768 160.536 190.072 162.667C189.383 164.775 185.77 171.506 186.937 177.313C186.937 177.313 188.976 181.101 192.735 182.715C193.874 183.204 195.001 183.789 196.112 184.438C196.113 184.436 196.115 184.434 196.116 184.431C196.998 181.894 195.493 176.925 193.99 174.366C192.488 171.807 191.399 170.568 192.008 169.102C192.618 167.636 200.012 166.25 200.9 164.092Z" fill="#004D99"/>
<mask id="mask9_271_15504" style="mask-type:luminance" maskUnits="userSpaceOnUse" x="186" y="153" width="15" height="32">
<path d="M186.707 153.968H200.901V184.438H186.707V153.968Z" fill="white"/>
</mask>
<g mask="url(#mask9_271_15504)">
<g opacity="0.199997">
<path d="M200.9 164.091C200.857 163.6 200.852 163.113 200.85 162.54C200.843 160.479 200.678 159.658 198.107 158.229C196.419 157.291 193.519 155.643 193.519 155.643L193.898 153.979C193.898 153.979 192.359 153.719 191.946 155.659C191.567 157.437 190.768 160.535 190.072 162.666C189.383 164.774 185.77 171.505 186.937 177.313C186.937 177.313 188.976 181.1 192.735 182.714C193.874 183.203 195.001 183.789 196.112 184.438C196.113 184.435 196.115 184.433 196.116 184.43C196.998 181.893 195.493 176.924 193.99 174.366C192.488 171.806 191.399 170.567 192.008 169.101C192.618 167.635 200.012 166.25 200.9 164.091Z" fill="black"/>
</g>
</g>
<path d="M196.584 161.178C196.631 161.577 196.346 161.94 195.947 161.987C195.548 162.035 195.185 161.75 195.138 161.35C195.09 160.951 195.375 160.589 195.775 160.541C196.175 160.494 196.536 160.779 196.584 161.178Z" fill="#1A2E35"/>
<path d="M193.531 183.082C193.728 177.701 190.923 170.451 187.801 168.631C186.417 172.121 186.452 174.89 186.939 177.313C186.939 177.313 188.978 181.101 192.737 182.715C193.002 182.829 193.266 182.958 193.531 183.082Z" fill="#709DD2"/>
<path d="M225.724 188.927C222.418 191.093 217.109 192.029 213.064 190.75C209.02 189.471 208.23 190.203 207.406 193.078C209.821 194.59 213.029 195.84 217.396 195.739C224.828 195.568 228.419 191.096 228.419 191.096C228.419 191.096 229.876 187.916 228.36 185.073C228.373 185.112 228.387 187.182 225.724 188.927Z" fill="#709DD2"/>
<path d="M217.768 178.102C216.47 178.239 215.095 178.684 213.84 179.234C212.528 179.81 211.254 180.586 210.179 181.545C209.89 181.802 210.403 182.173 210.69 181.964C211.803 181.153 212.954 180.44 214.206 179.887C215.404 179.357 216.596 179.054 217.832 178.825C218.401 178.721 218.255 178.05 217.768 178.102Z" fill="#004D99"/>
<path d="M218.05 178.291C217.513 177.832 216.541 177.705 215.771 177.63C215.149 177.571 214.505 177.58 213.86 177.607C214.055 177.365 214.257 177.127 214.47 176.897C214.679 176.67 214.902 176.454 215.13 176.242C215.379 176.012 215.67 175.825 215.822 175.539C215.916 175.363 215.706 175.118 215.502 175.196C214.911 175.42 214.42 175.931 213.99 176.377C213.597 176.784 213.242 177.215 212.901 177.654C212.161 177.698 211.417 177.75 210.669 177.868C209.849 177.999 208.698 178.187 208 178.783C207.831 178.929 208.017 179.221 208.208 179.171C209.079 178.942 209.898 178.665 210.777 178.554C211.297 178.488 211.816 178.447 212.335 178.411C212.05 178.8 211.765 179.191 211.485 179.582C211.022 180.227 210.489 180.875 210.098 181.548C209.886 181.913 210.454 182.234 210.746 181.88C211.23 181.293 211.642 180.654 212.076 180.042C212.476 179.479 212.871 178.912 213.284 178.355C213.285 178.353 213.287 178.352 213.288 178.349C213.985 178.308 214.681 178.285 215.359 178.325C215.835 178.353 216.307 178.404 216.75 178.511C217.061 178.586 217.343 178.71 217.657 178.778C217.979 178.847 218.314 178.517 218.05 178.291Z" fill="#004D99"/>
<path d="M215.691 175.277C215.154 174.818 214.182 174.69 213.412 174.616C212.789 174.556 212.146 174.566 211.501 174.592C211.696 174.35 211.898 174.112 212.111 173.882C212.32 173.654 212.542 173.439 212.771 173.228C213.02 172.997 213.31 172.811 213.463 172.524C213.556 172.348 213.347 172.103 213.142 172.181C212.552 172.405 212.061 172.917 211.63 173.362C211.238 173.769 210.883 174.2 210.541 174.639C209.801 174.683 209.058 174.735 208.31 174.854C207.49 174.984 206.338 175.172 205.641 175.769C205.471 175.915 205.658 176.206 205.848 176.156C206.719 175.927 207.538 175.651 208.417 175.54C208.938 175.473 209.457 175.432 209.975 175.396C209.691 175.786 209.406 176.176 209.125 176.567C208.663 177.212 208.13 177.86 207.739 178.534C207.527 178.898 208.095 179.219 208.386 178.865C208.871 178.279 209.282 177.639 209.717 177.028C210.117 176.464 210.512 175.898 210.925 175.341C210.926 175.338 210.928 175.337 210.929 175.335C211.626 175.293 212.321 175.27 213 175.31C213.475 175.338 213.947 175.389 214.391 175.496C214.702 175.571 214.984 175.696 215.298 175.764C215.619 175.833 215.954 175.502 215.691 175.277Z" fill="#004D99"/>
<path d="M213.392 172.242C212.49 171.799 211.338 171.614 210.185 171.531C210.413 171.297 210.64 171.063 210.858 170.823C211.107 170.551 211.345 170.271 211.568 169.983C211.767 169.725 212.035 169.412 212.015 169.122C212.007 169.014 211.889 168.794 211.715 168.907C211.41 169.104 211.225 169.468 211.007 169.742C210.773 170.039 210.516 170.324 210.252 170.604C209.971 170.902 209.679 171.193 209.389 171.485C209.093 171.475 208.795 171.464 208.511 171.463C207.674 171.46 206.827 171.516 205.972 171.614C205.168 171.707 204.126 171.768 203.347 172.151C203.178 172.233 203.218 172.509 203.385 172.507C204.164 172.494 205.001 172.289 205.794 172.193C206.633 172.09 207.469 172.037 208.293 172.026C208.48 172.024 208.664 172.033 208.849 172.036C208.782 172.105 208.714 172.174 208.646 172.243C208.102 172.803 207.566 173.369 207.04 173.942C206.771 174.235 206.504 174.53 206.239 174.827C205.992 175.103 205.661 175.404 205.485 175.715C205.359 175.938 205.642 176.292 205.905 176.073C206.216 175.812 206.472 175.47 206.741 175.172C207.024 174.859 207.31 174.547 207.598 174.237C208.155 173.636 208.717 173.038 209.29 172.447C209.414 172.318 209.54 172.191 209.666 172.062C209.98 172.081 210.293 172.102 210.601 172.138C211.537 172.245 212.402 172.504 213.318 172.65C213.581 172.692 213.522 172.306 213.392 172.242Z" fill="#004D99"/>
<path d="M211.843 168.872C210.808 168.868 209.785 168.824 208.775 168.739C209.246 168.332 209.708 167.917 210.138 167.475C210.438 167.165 210.729 166.847 210.998 166.516C211.25 166.207 211.577 165.832 211.625 165.471C211.644 165.332 211.508 165.161 211.341 165.278C211.018 165.502 210.793 165.909 210.551 166.205C210.268 166.551 209.962 166.884 209.641 167.204C209.126 167.719 208.572 168.2 208.009 168.67C207.564 168.62 207.122 168.563 206.684 168.493C205.877 168.364 205.085 168.201 204.311 168.003C203.61 167.825 202.944 167.568 202.235 167.411C202.039 167.367 202.009 167.67 202.101 167.744C202.644 168.178 203.417 168.363 204.132 168.55C204.959 168.766 205.81 168.939 206.675 169.075C206.913 169.112 207.155 169.139 207.396 169.17C206.828 169.631 206.254 170.09 205.672 170.536C205.315 170.811 204.95 171.078 204.573 171.326C204.164 171.595 203.73 171.804 203.312 172.054C203.058 172.205 203.318 172.58 203.556 172.493C204.399 172.185 205.225 171.566 205.944 171.026C206.693 170.464 207.424 169.874 208.144 169.279C208.152 169.274 208.158 169.267 208.165 169.261C209.4 169.385 210.661 169.43 211.945 169.384C212.309 169.37 212.119 168.874 211.843 168.872Z" fill="#004D99"/>
<path d="M3.19752 156.303L109.592 216.267L170.843 253.092C174.765 255.357 178.9 257.224 183.193 258.667C184.951 259.259 186.912 259.918 188.87 260.576C194.916 262.608 198.89 262.939 202.546 260.828C204.358 259.782 205.335 258.194 205.331 256.68C205.329 256.308 205.33 254.825 205.33 254.446C205.333 252.901 204.313 251.431 202.107 250.689L196.431 248.78C192.138 247.337 188.1 245.437 184.078 243.204L120.224 207.8L16.4347 146.416L3.19531 154.06L3.19752 156.303Z" fill="#004D99"/>
<mask id="mask10_271_15504" style="mask-type:luminance" maskUnits="userSpaceOnUse" x="3" y="146" width="203" height="117">
<path d="M3.19531 146.416H205.331V262.263H3.19531L3.19531 146.416Z" fill="white"/>
</mask>
<g mask="url(#mask10_271_15504)">
<g opacity="0.300003">
<path d="M3.19752 156.303L109.592 216.267L170.843 253.092C174.765 255.357 178.9 257.224 183.193 258.667C184.951 259.259 186.912 259.918 188.87 260.576C194.916 262.608 198.89 262.939 202.546 260.828C204.358 259.782 205.335 258.194 205.331 256.68C205.329 256.308 205.33 254.825 205.33 254.446C205.333 252.901 204.313 251.431 202.107 250.689L196.431 248.78C192.138 247.337 187.999 245.469 184.078 243.204L120.224 207.8L16.4347 146.416L3.19531 154.06L3.19752 156.303Z" fill="black"/>
</g>
</g>
<path d="M188.867 258.333C194.914 260.365 198.888 260.696 202.544 258.585C206.199 256.474 206.471 252.157 202.107 250.689L196.431 248.781C192.138 247.337 187.999 245.469 184.078 243.204L120.224 207.801L16.4347 146.416L3.19531 154.06L109.609 214.036L170.841 250.85C174.763 253.114 178.898 254.981 183.19 256.425C184.948 257.016 186.91 257.675 188.867 258.333Z" fill="#004D99"/>
<mask id="mask11_271_15504" style="mask-type:luminance" maskUnits="userSpaceOnUse" x="150" y="235" width="28" height="9">
<path d="M150.562 235.429H177.998V243.141H150.562V235.429Z" fill="white"/>
</mask>
<g mask="url(#mask11_271_15504)">
<g opacity="0.399994">
<path d="M170.055 235.428L177.998 239.832L158.021 243.141L157.745 242.974L150.562 238.656L170.055 235.428Z" fill="white"/>
</g>
</g>
<mask id="mask12_271_15504" style="mask-type:luminance" maskUnits="userSpaceOnUse" x="46" y="175" width="27" height="8">
<path d="M46.2227 175.184H72.6359V182.728H46.2227V175.184Z" fill="white"/>
</mask>
<g mask="url(#mask12_271_15504)">
<g opacity="0.399994">
<path d="M65.0812 175.184L72.6359 179.653L54.0654 182.728L46.2227 178.308L65.0812 175.184Z" fill="white"/>
</g>
</g>
<mask id="mask13_271_15504" style="mask-type:luminance" maskUnits="userSpaceOnUse" x="159" y="240" width="24" height="6">
<path d="M159.676 240.81H182.672V245.78H159.676V240.81Z" fill="white"/>
</mask>
<g mask="url(#mask13_271_15504)">
<g opacity="0.399994">
<path d="M162.023 245.547L159.676 244.136L179.76 240.81L182.672 242.424L162.41 245.78L162.023 245.547Z" fill="white"/>
</g>
</g>
<mask id="mask14_271_15504" style="mask-type:luminance" maskUnits="userSpaceOnUse" x="41" y="172" width="23" height="6">
<path d="M41.3164 172.39H63.1247V177.164H41.3164V172.39Z" fill="white"/>
</mask>
<g mask="url(#mask14_271_15504)">
<g opacity="0.399994">
<path d="M63.1242 174.028L44.1905 177.164L41.3164 175.543L60.3548 172.39L63.1242 174.028Z" fill="white"/>
</g>
</g>
<path d="M202.546 258.585C205.267 257.172 206.621 253.453 203.721 251.442C202.922 250.858 201.962 250.578 201.052 250.26C197.728 249.121 193.266 247.651 190.154 246.164C184.109 243.321 175.678 238.23 169.692 235.01C162.038 230.699 125.689 210.575 118.766 206.622C104.358 198.05 82.9955 185.618 68.5382 177.021L16.4375 146.417L68.3961 177.262C82.868 185.954 104.099 198.429 118.503 207.078C125.136 210.997 162.045 231.168 169.504 235.341C175.532 238.547 183.913 243.579 190.039 246.418C193.176 247.884 197.705 249.294 201.008 250.393C202.821 250.907 204.856 251.8 205.247 253.844C205.58 255.82 204.203 257.649 202.546 258.585Z" fill="#004D99"/>
<g opacity="0.300003">
<path d="M202.546 258.585C205.267 257.172 206.621 253.453 203.721 251.442C202.922 250.858 201.962 250.578 201.052 250.26C197.728 249.121 193.266 247.651 190.154 246.164C184.109 243.321 175.678 238.23 169.692 235.01C162.038 230.699 125.689 210.575 118.766 206.622C104.358 198.05 82.9955 185.618 68.5382 177.021L16.4375 146.417L68.3961 177.262C82.868 185.954 104.099 198.429 118.503 207.078C125.136 210.997 162.045 231.168 169.504 235.341C175.532 238.547 183.913 243.579 190.039 246.418C193.176 247.884 197.705 249.294 201.008 250.393C202.821 250.907 204.856 251.8 205.247 253.844C205.58 255.82 204.203 257.649 202.546 258.585Z" fill="black"/>
</g>
<path d="M185.387 254.044C184.741 254.591 184.741 255.195 185.387 255.395C186.033 255.595 187.081 255.314 187.728 254.768C188.374 254.222 188.374 253.617 187.728 253.417C187.081 253.217 186.033 253.497 185.387 254.044Z" fill="#CBCBCB"/>
<path d="M192.004 256.092C191.358 256.638 191.358 257.243 192.004 257.443C192.65 257.643 193.698 257.362 194.345 256.816C194.991 256.269 194.991 255.664 194.345 255.465C193.698 255.265 192.65 255.546 192.004 256.092Z" fill="#CBCBCB"/>
<path d="M190.301 249.767C189.655 250.314 189.655 250.919 190.301 251.118C190.947 251.318 191.995 251.037 192.642 250.491C193.288 249.945 193.288 249.34 192.642 249.14C191.995 248.94 190.947 249.22 190.301 249.767Z" fill="#CBCBCB"/>
<path d="M196.922 251.815C196.276 252.361 196.276 252.966 196.922 253.166C197.568 253.366 198.616 253.085 199.263 252.539C199.909 251.992 199.909 251.387 199.263 251.188C198.616 250.987 197.568 251.268 196.922 251.815Z" fill="#CBCBCB"/>
<path d="M92.2659 184.408C89.7034 184.408 77.9626 185.502 75.1445 193.691L85.0892 199.438" fill="#CBCBCB"/>
<path d="M95.0802 193.619V187.911C95.0802 184.759 92.8434 183.495 90.085 185.088C87.3259 186.681 85.0898 190.539 85.0898 193.705V199.438L95.0802 193.619Z" fill="#1A2E35"/>
<path d="M95.9219 194.446L86.5195 199.922L98.9957 206.91L107.275 201.271L95.9219 194.446Z" fill="#CBCBCB"/>
<path d="M115.059 212.436L102.939 205.439L100.949 206.794L113.069 213.792L115.059 212.436ZM107.173 202.601L105.183 203.957L117.304 210.955L119.294 209.599L107.173 202.601Z" fill="white"/>
<path d="M125.211 221.067L132.851 216.205L132.444 213.807L122.932 208.801L116.227 213.333L116.633 215.73L125.211 221.067Z" fill="#1A2E35"/>
<path d="M124.805 218.669L125.211 221.067L132.851 216.205L132.444 213.807L124.805 218.669Z" fill="#2B454E"/>
<path d="M132.443 213.807L122.931 208.801L116.227 213.333L124.804 218.669L132.443 213.807Z" fill="#CBCBCB"/>
<path d="M129.724 213.961C127.292 212.602 124.555 211.116 123.794 210.96C123.032 210.804 119.697 212.81 120.142 213.515C120.587 214.218 124.831 217.52 124.831 217.52C124.831 217.52 120.588 213.939 120.957 213.3C121.325 212.661 122.915 211.689 123.525 211.55C124.217 211.391 129.724 213.961 129.724 213.961Z" fill="#2B454E"/>
<path d="M187.228 87.5706C183.42 108.329 163.112 112.142 163.112 112.142C163.112 112.142 159.085 123.833 151.03 139.942C143.119 155.761 138.253 158.881 131.892 165.24C125.943 171.187 105.605 190.877 105.605 190.877C105.605 190.877 95.7881 189.725 93.5078 180.857C96.0842 174.722 99.0894 169.577 102.97 160.558C106.917 151.385 112.545 142.861 120.597 139.799C120.597 139.799 122.995 115.103 124.336 104.14C125.979 90.7055 130.348 78.3428 138.654 72.0451L187.228 87.5706Z" fill="#0E4990"/>
<path d="M142.674 75.5175C139.964 78.3614 137.882 81.8757 136.141 85.3782C134.362 88.9559 132.965 92.7103 131.859 96.5481C129.467 104.85 128.462 113.458 127.781 122.047C127.418 126.629 127.142 131.217 126.785 135.8C126.698 136.924 126.606 138.049 126.505 139.173C126.41 140.231 126.296 141.303 125.833 142.275C125.114 143.788 123.712 144.8 122.308 145.631C120.858 146.489 119.326 147.2 117.929 148.148C116.455 149.147 115.119 150.343 113.916 151.653C111.467 154.321 109.58 157.457 107.9 160.649C105.947 164.362 104.185 168.179 102.358 171.954C100.338 176.129 98.3128 180.301 96.3044 184.481C96.1387 184.825 95.9736 185.168 95.8086 185.511C96.0097 185.764 96.2175 186.006 96.4311 186.236C100.127 178.615 103.767 170.963 107.526 163.372C109.145 160.102 110.879 156.855 113.121 153.962C114.238 152.52 115.481 151.168 116.883 149.998C118.221 148.882 119.691 148.003 121.22 147.179C122.638 146.414 124.079 145.642 125.255 144.522C126.615 143.224 127.181 141.608 127.374 139.767C127.843 135.284 128.069 130.772 128.387 126.276C129.011 117.488 129.768 108.658 131.859 100.077C133.734 92.3744 136.724 84.9678 141.229 78.4196C141.821 77.5605 142.435 76.7162 143.04 75.8668C143.162 75.6944 142.832 75.351 142.674 75.5175Z" fill="#004D99"/>
<path d="M88.2344 197.422C88.4436 199.179 88.5821 199.696 88.9534 200.389C89.3248 201.083 90.561 202.745 93.2376 203.981C95.9747 205.246 98.6063 206.356 102.328 209.525C104.522 211.393 107.496 215.001 112.591 216.636C117.685 218.272 122.716 217.113 125.946 215.719C129.176 214.325 129.875 212.381 129.765 211.456L88.2344 197.422Z" fill="#1A2E35"/>
<path d="M120.834 201.612C116.068 203.841 113.823 205.923 110.851 202.8C107.88 199.678 103.563 192.87 103.765 189.203C103.909 186.567 104.316 183.049 106.415 180.836C108.247 178.904 117.843 176.791 118.36 178.493C118.878 180.195 115.21 185.079 114.597 187.453C113.983 189.826 116.194 196.285 120.834 201.612Z" fill="#709DD2"/>
<path d="M117.477 181.616C118.123 180.316 118.565 179.16 118.362 178.493C117.845 176.792 108.25 178.905 106.417 180.836C105.432 181.875 104.829 183.204 104.441 184.591C105.564 181.978 108.561 180.633 110.705 179.949C112.859 179.263 116.361 178.608 117.388 179.154C117.95 179.451 118.073 180.461 117.477 181.616Z" fill="#004D99"/>
<path d="M89.2039 198.823C89.5045 199.342 89.9406 199.984 90.3502 200.406C91.4148 201.512 92.657 202.467 94.076 203.082C97.8423 204.691 101.5 207.258 104.721 210.233C107.218 212.539 111.312 216.264 118.736 216.101C126.174 215.923 129.763 211.461 129.763 211.461C129.763 211.461 132.343 205.825 127.075 202.85C123.964 201.089 121.084 199.219 118.546 197.145C118.327 196.981 118.109 196.79 117.891 196.612C117.413 196.203 116.962 195.807 116.525 195.411C116.075 194.988 115.618 194.577 115.194 194.14C116.177 196.584 117.476 197.78 118.705 198.967C119.687 199.922 114.301 202.658 112.841 201.716C111.381 200.788 108.225 196.136 105.878 191.809C104.131 187.743 104.09 186.787 104.09 184.726C104.09 184.522 104.077 184.331 104.049 184.153C103.872 182.979 98.498 179.867 97.2831 179.485C97.2145 179.458 97.16 179.43 97.0922 179.417C96.9279 179.363 96.7916 179.321 96.6686 179.321C96.6553 179.321 96.6413 179.321 96.6281 179.307C96.396 179.307 96.2185 179.376 95.9179 179.567C95.8228 179.635 95.727 179.69 95.6453 179.772C95.3181 180.004 95.0043 180.263 94.7177 180.536C93.9669 181.246 93.3252 182.064 92.7793 182.938C92.2606 183.798 91.8377 184.712 91.4148 185.627C90.5956 187.373 89.777 189.147 89.3542 191.045C88.9313 192.941 88.9313 194.893 88.9173 196.844C88.9173 197.513 88.8627 198.237 89.2039 198.823Z" fill="#004D99"/>
<mask id="mask15_271_15504" style="mask-type:luminance" maskUnits="userSpaceOnUse" x="95" y="179" width="26" height="26">
<path d="M95.4648 179.089H120.526V204.25H95.4648V179.089Z" fill="white"/>
</mask>
<g mask="url(#mask15_271_15504)">
<g opacity="0.300003">
<path d="M95.4648 179.089L95.6424 179.771L99.3637 184.313C100.319 187.739 101.044 190.832 104.847 196.403C108.574 201.863 110.258 203.3 112.333 204.023C115.485 205.087 119.688 202.153 120.343 200.706C120.849 199.601 120.262 198.728 119.115 197.609C118.924 197.459 118.733 197.308 118.542 197.145C118.324 196.967 118.105 196.79 117.887 196.612C117.41 196.203 116.96 195.807 116.523 195.411C116.072 194.988 115.614 194.563 115.191 194.14C116.174 196.583 117.473 197.78 118.701 198.967C119.684 199.922 114.298 202.658 112.837 201.716C111.377 200.788 108.222 196.135 105.875 191.809C104.128 187.742 104.087 186.788 104.087 184.726C104.087 184.522 104.073 184.33 104.046 184.153C103.923 182.939 98.6719 179.867 97.2802 179.485C97.0886 179.417 96.8838 179.363 96.6657 179.321C96.6517 179.321 96.6385 179.321 96.6245 179.307C96.3246 179.253 95.9835 179.185 95.6284 179.13C95.5606 179.116 95.5194 179.103 95.4648 179.089Z" fill="#F5F5F5"/>
</g>
</g>
<path d="M104.134 186.281C104.091 185.79 104.086 185.303 104.084 184.73C104.077 182.67 101.262 180.742 98.8288 179.09C95.9938 177.164 95.8634 175.697 95.8634 175.697L96.6539 174.027C96.6539 174.027 95.0323 173.849 94.619 175.788C94.2403 177.566 93.452 180.133 91.4289 183.872C90.3731 185.822 87.113 191.866 88.28 197.673C88.28 197.673 90.3186 201.461 94.0775 203.075C95.2165 203.564 96.3437 204.15 97.4547 204.798C97.4555 204.796 97.4577 204.793 97.4584 204.791C98.3403 202.254 96.8359 197.285 95.3336 194.726C93.8307 192.166 92.7417 190.927 93.351 189.462C93.9603 187.996 103.246 188.44 104.134 186.281Z" fill="#004D99"/>
<mask id="mask16_271_15504" style="mask-type:luminance" maskUnits="userSpaceOnUse" x="88" y="174" width="17" height="31">
<path d="M88.0312 174.022H104.134V204.798H88.0312V174.022Z" fill="white"/>
</mask>
<g mask="url(#mask16_271_15504)">
<g opacity="0.199997">
<path d="M104.134 186.281C104.091 185.789 104.086 185.302 104.084 184.73C104.077 182.669 101.262 180.742 98.8288 179.089C95.9938 177.163 95.8634 175.696 95.8634 175.696L96.6539 174.026C96.6539 174.026 95.0323 173.849 94.619 175.788C94.2403 177.566 93.452 180.132 91.4289 183.871C90.3731 185.822 87.113 191.865 88.28 197.672C88.28 197.672 90.3186 201.461 94.0775 203.074C95.2165 203.563 96.3437 204.149 97.4547 204.797C97.4555 204.795 97.4577 204.793 97.4584 204.791C98.3403 202.253 96.8359 197.285 95.3336 194.725C93.8307 192.166 92.7417 190.927 93.351 189.461C93.9603 187.996 103.246 188.439 104.134 186.281Z" fill="black"/>
</g>
</g>
<path d="M97.9281 181.537C97.9752 181.937 97.6901 182.299 97.2908 182.346C96.8914 182.394 96.529 182.109 96.4818 181.71C96.4339 181.31 96.719 180.948 97.1191 180.9C97.5184 180.853 97.8802 181.138 97.9281 181.537Z" fill="#1A2E35"/>
<path d="M94.875 203.442C95.0717 198.061 92.2669 190.811 89.1453 188.991C87.7617 192.482 87.7955 195.25 88.2825 197.673C88.2825 197.673 90.3211 201.461 94.08 203.075C94.346 203.189 94.6105 203.318 94.875 203.442Z" fill="#709DD2"/>
<path d="M127.068 209.286C123.761 211.452 118.452 212.388 114.408 211.109C110.364 209.83 109.574 210.562 108.75 213.436C111.164 214.949 114.373 216.199 118.74 216.098C126.172 215.927 129.763 211.455 129.763 211.455C129.763 211.455 131.219 208.275 129.704 205.431C129.717 205.471 129.731 207.541 127.068 209.286Z" fill="#709DD2"/>
<path d="M119.708 198.769C118.412 198.907 117.005 199.336 115.705 199.864C114.347 200.415 113.002 201.155 111.835 202.066C111.521 202.311 111.986 202.657 112.292 202.457C113.481 201.686 114.696 201.005 115.994 200.475C117.235 199.968 118.445 199.674 119.69 199.45C120.263 199.348 120.194 198.717 119.708 198.769Z" fill="#004D99"/>
<path d="M119.964 198.945C119.486 198.516 118.541 198.403 117.789 198.338C117.182 198.286 116.546 198.3 115.907 198.329C116.127 198.099 116.353 197.874 116.588 197.655C116.82 197.439 117.063 197.234 117.313 197.033C117.584 196.814 117.891 196.637 118.074 196.366C118.186 196.199 118.007 195.97 117.796 196.045C117.189 196.26 116.647 196.746 116.172 197.169C115.739 197.555 115.34 197.964 114.955 198.379C114.22 198.426 113.48 198.48 112.729 198.597C111.905 198.725 110.748 198.911 109.993 199.478C109.81 199.616 109.961 199.89 110.154 199.842C111.04 199.619 111.878 199.353 112.758 199.243C113.279 199.177 113.796 199.135 114.312 199.097C113.987 199.466 113.663 199.836 113.342 200.206C112.813 200.818 112.215 201.432 111.754 202.07C111.504 202.415 112.029 202.713 112.356 202.378C112.899 201.821 113.377 201.217 113.874 200.636C114.332 200.103 114.786 199.566 115.255 199.038C115.256 199.036 115.258 199.034 115.259 199.033C115.952 198.989 116.641 198.961 117.306 198.995C117.771 199.019 118.231 199.063 118.657 199.161C118.956 199.23 119.22 199.345 119.522 199.407C119.832 199.47 120.199 199.156 119.964 198.945Z" fill="#004D99"/>
<path d="M117.976 196.12C117.497 195.691 116.553 195.578 115.801 195.513C115.194 195.461 114.559 195.475 113.919 195.503C114.139 195.274 114.365 195.049 114.6 194.83C114.832 194.614 115.075 194.409 115.324 194.209C115.596 193.989 115.903 193.812 116.086 193.541C116.198 193.374 116.019 193.145 115.808 193.22C115.2 193.435 114.659 193.921 114.184 194.344C113.751 194.73 113.352 195.139 112.967 195.554C112.232 195.601 111.492 195.654 110.741 195.771C109.917 195.9 108.76 196.085 108.005 196.653C107.821 196.791 107.973 197.065 108.166 197.017C109.052 196.794 109.89 196.528 110.77 196.418C111.291 196.351 111.808 196.309 112.324 196.272C111.999 196.641 111.675 197.011 111.354 197.381C110.825 197.993 110.227 198.607 109.766 199.245C109.516 199.59 110.041 199.888 110.368 199.552C110.911 198.996 111.389 198.391 111.886 197.812C112.344 197.277 112.798 196.741 113.267 196.213C113.268 196.211 113.27 196.209 113.271 196.208C113.964 196.164 114.653 196.136 115.317 196.17C115.783 196.194 116.243 196.238 116.669 196.336C116.968 196.404 117.232 196.52 117.534 196.582C117.844 196.645 118.211 196.331 117.976 196.12Z" fill="#004D99"/>
<path d="M116.046 193.275C115.206 192.864 114.09 192.697 112.961 192.626C113.212 192.404 113.462 192.182 113.705 191.955C113.98 191.696 114.248 191.431 114.499 191.158C114.724 190.913 115.023 190.617 115.036 190.343C115.04 190.242 114.948 190.035 114.764 190.142C114.441 190.331 114.217 190.674 113.973 190.934C113.708 191.216 113.422 191.487 113.131 191.752C112.82 192.035 112.499 192.311 112.181 192.589C111.89 192.582 111.598 192.574 111.317 192.574C110.492 192.577 109.65 192.635 108.796 192.733C107.99 192.826 106.957 192.891 106.144 193.258C105.969 193.337 105.978 193.596 106.142 193.592C106.913 193.576 107.761 193.377 108.555 193.28C109.394 193.178 110.224 193.122 111.039 193.106C111.223 193.103 111.405 193.11 111.587 193.111C111.512 193.177 111.437 193.243 111.363 193.308C110.764 193.84 110.171 194.376 109.588 194.92C109.29 195.199 108.994 195.479 108.699 195.76C108.424 196.022 108.065 196.308 107.856 196.603C107.706 196.814 107.946 197.145 108.23 196.937C108.567 196.689 108.857 196.365 109.156 196.083C109.47 195.785 109.787 195.49 110.106 195.195C110.723 194.625 111.345 194.057 111.975 193.496C112.113 193.374 112.252 193.253 112.39 193.131C112.697 193.146 113.003 193.164 113.303 193.195C114.215 193.29 115.04 193.529 115.927 193.66C116.183 193.699 116.166 193.334 116.046 193.275Z" fill="#004D99"/>
<path d="M114.896 190.11C113.877 190.113 112.872 190.079 111.884 190.006C112.394 189.619 112.897 189.225 113.37 188.805C113.702 188.511 114.024 188.209 114.327 187.895C114.61 187.602 114.975 187.246 115.062 186.905C115.096 186.775 114.981 186.614 114.803 186.726C114.459 186.94 114.192 187.325 113.92 187.605C113.602 187.933 113.263 188.249 112.911 188.553C112.344 189.041 111.744 189.499 111.136 189.945C110.702 189.903 110.272 189.851 109.849 189.788C109.067 189.672 108.304 189.524 107.562 189.343C106.891 189.179 106.262 188.942 105.58 188.798C105.391 188.758 105.328 189.044 105.411 189.114C105.897 189.519 106.64 189.687 107.325 189.859C108.117 190.057 108.937 190.215 109.774 190.337C110.006 190.37 110.241 190.394 110.477 190.421C109.863 190.86 109.246 191.297 108.622 191.721C108.238 191.982 107.849 192.237 107.449 192.473C107.015 192.729 106.564 192.929 106.123 193.167C105.856 193.312 106.071 193.663 106.315 193.58C107.18 193.284 108.066 192.694 108.835 192.181C109.637 191.646 110.424 191.084 111.201 190.519C111.21 190.514 111.216 190.508 111.224 190.502C112.429 190.611 113.668 190.644 114.94 190.591C115.301 190.577 115.169 190.11 114.896 190.11Z" fill="#004D99"/>
<path d="M170.185 45.6281C159.681 49.5101 140.668 66.1437 134.996 74.1359C139.785 100.508 178.876 98.0604 188.052 87.7245C188.052 87.7245 188.402 86.3218 189.137 82.5842L197.697 74.6973L170.185 45.6281Z" fill="#004D99"/>
<mask id="mask17_271_15504" style="mask-type:luminance" maskUnits="userSpaceOnUse" x="134" y="45" width="64" height="51">
<path d="M134.996 45.6251H197.702V95.022H134.996V45.6251Z" fill="white"/>
</mask>
<g mask="url(#mask17_271_15504)">
<g opacity="0.100006">
<path d="M197.701 74.6979L189.14 82.5812C188.403 86.3239 188.049 87.7237 188.049 87.7237C185.331 90.7886 179.989 93.1609 173.683 94.2955C173.418 94.3397 173.145 94.3839 172.872 94.4281C157.99 96.8225 138.304 92.3578 134.996 74.138C140.669 66.1443 159.685 49.5085 170.183 45.6258L189.84 66.3948L190.326 66.9031L197.701 74.6979Z" fill="#004D99"/>
</g>
</g>
<path d="M163.195 45.6151C162.872 47.0282 162.416 48.4103 162.023 49.8087C159.38 59.2192 156.696 72.6546 166.511 79.8202C170.596 82.8033 176.889 83.501 181.772 82.8114C187.536 81.9973 192.887 79.1299 197.607 75.7025C201.268 73.0443 205.203 70.6639 207.886 64.9386C210.89 58.5274 210.357 47.636 204.719 41.8378C203.414 40.4954 186.475 37.3289 184.534 37.505C178.361 38.0664 173.242 37.9735 168.736 38.0443C166.561 38.0782 163.805 42.3064 163.389 44.664C163.332 44.983 163.267 45.2998 163.195 45.6151Z" fill="#004D99"/>
<path d="M184.73 41.4463C184.708 41.2732 187.042 40.1747 187.216 40.0781C191.995 37.4502 196.773 34.8214 201.551 32.1927C204.189 30.7413 206.827 29.2907 209.465 27.8393C211.152 26.9109 212.405 25.769 214.295 26.6266C216.067 27.4304 218.099 26.2199 219.164 24.7729C221.045 22.2193 220.882 18.705 219.957 15.8022C219.416 14.104 218.455 12.5141 217.075 11.3884C216.378 10.8211 215.59 10.3797 214.806 9.94138C213.825 9.3925 212.905 8.7449 211.947 8.18645C210.87 7.558 209.543 7.19036 208.406 6.65843C205.742 5.41258 202.809 4.83792 199.889 4.62942C184.806 3.5545 179.334 15.8376 179.574 23.2655C179.906 33.5196 185.213 34.8067 184.73 41.4463Z" fill="#2B454E"/>
<path d="M216.341 33.4496C214.046 44.7845 209.953 46.4231 207.958 46.8997C205.962 47.3772 202.822 47.2401 199.457 46.0459L195.946 48.7107C196.414 54.8124 179.337 48.0181 181.611 37.7825L187.738 33.2161C187.738 33.2161 185.972 34.8318 183.335 32.5235C180.808 30.3111 181.328 25.5509 183.213 23.8314C184.934 22.2614 187.994 23.0895 188.637 25.2268C188.89 26.0659 188.844 26.3813 188.765 27.4297C188.73 27.9093 188.555 28.5097 188.876 28.7698C189.735 29.4653 190.594 29.1028 191.271 28.3712C191.864 27.731 192.143 26.3599 192.824 25.9414C193.179 25.7233 193.603 25.6526 193.988 25.4957C195.128 25.0301 195.854 23.7186 195.645 22.5052C199.16 22.8795 202.804 20.7989 204.267 17.5808C204.56 16.9376 204.709 15.7743 205.31 15.3477C206.014 14.8474 207.473 15.2998 208.232 15.4744C210.317 15.9555 212.298 16.9383 213.878 18.3897C215.694 20.057 217.373 22.7771 217.355 25.3307C217.335 28.0493 216.884 30.7782 216.341 33.4496Z" fill="#FFBEA7"/>
<path d="M204.846 26.2397L201.02 25.1707C201.354 24.0988 202.482 23.4688 203.538 23.7643C204.596 24.059 205.181 25.1678 204.846 26.2397Z" fill="#1A2E35"/>
<path d="M215.334 25.2797L211.646 26.8379C211.174 25.8271 211.617 24.6601 212.636 24.2298C213.653 23.7995 214.862 24.2696 215.334 25.2797Z" fill="#1A2E35"/>
<path d="M204.324 29.5113C204.228 30.3077 203.505 30.8758 202.709 30.78C201.913 30.6842 201.345 29.9615 201.44 29.165C201.536 28.3686 202.259 27.8006 203.055 27.8964C203.851 27.9921 204.419 28.7149 204.324 29.5113Z" fill="#1A2E35"/>
<path d="M214.488 30.3082C214.392 31.1046 213.669 31.6726 212.873 31.5769C212.077 31.4811 211.509 30.7583 211.604 29.9619C211.7 29.1655 212.423 28.5975 213.219 28.6932C214.016 28.789 214.584 29.5118 214.488 30.3082Z" fill="#1A2E35"/>
<path d="M206.554 40.0199C206.566 40.0052 206.576 39.9883 206.577 39.9684C206.579 39.9367 206.559 39.908 206.538 39.8851C206.376 39.709 206.256 39.7385 205.953 39.6943C205.694 39.656 205.259 39.6007 205.007 39.53C204.503 39.3878 204.075 39.1624 203.616 38.9111C202.874 38.5067 202.312 37.8679 201.827 37.1901C201.793 37.1429 201.734 37.2343 201.739 37.266C201.856 38.2355 202.518 38.9664 203.307 39.4961C204.083 40.0185 204.991 40.2675 205.929 40.2115C206.131 40.199 206.34 40.1688 206.508 40.0583C206.524 40.0472 206.541 40.0347 206.554 40.0199Z" fill="#FF9A79"/>
<path d="M199.452 46.0436C196.606 44.8029 194.406 42.9035 192.473 40.8532C190.938 39.2249 190.229 37.2092 189.945 35.799C189.945 35.799 189.51 40.2417 191.415 42.572C193.319 44.9023 197.893 47.2319 197.893 47.2319L199.452 46.0436Z" fill="#FF9A79"/>
<path d="M216.34 33.4506C214.913 42.6497 209.951 51.0155 199.457 46.0461C210.175 50.0474 213.997 42.3904 216.34 33.4506Z" fill="#FF9A79"/>
<path d="M192.41 16.2387C191.762 24.7319 191.141 34.9057 191.955 38.2189C193.03 42.5922 197.394 44.9727 197.394 44.9727C197.394 44.9727 195.542 44.2204 193.685 42.9363C191.827 41.6514 190.645 40.5352 189.859 36.7513C189.075 32.9703 189.91 16.4774 189.91 16.4774L192.41 16.2387Z" fill="white"/>
<path d="M184.981 19.4154C184.981 19.4154 185.055 20.2575 185.251 23.0203C184.804 23.0896 184.123 23.2207 183.573 23.5692C183.085 23.8794 182.854 24.1615 182.582 24.5933C182.336 22.3661 182.203 20.6929 182.203 20.6929L184.981 19.4154Z" fill="#1A2E35"/>
<path d="M179.769 25.9472C182.96 21.9525 197.316 14.3957 209.136 15.9768C220.423 17.4856 220.461 21.6195 220.461 21.6195C220.461 21.6195 222.02 22.1154 222.863 20.6109C223.707 19.1065 222.05 5.29241 212.67 1.77738C203.009 -1.84301 190.966 0.236835 184.201 6.47637C178.351 11.8723 177.143 18.0721 177.802 24.0066C177.857 24.4965 178.374 27.7633 179.995 27.1901C179.995 27.1901 179.817 26.3318 179.769 25.9472Z" fill="#D3D3DE"/>
<path d="M205.449 7.58775C200.381 4.00715 193.417 4.18839 191.656 5.12995C189.895 6.07226 186.897 9.25428 189.438 9.97187C191.978 10.688 198.739 9.88494 202.636 11.0777C206.534 12.2705 209.625 10.5384 205.449 7.58775Z" fill="#CBCBCB"/>
<path d="M205.218 9.50847C200.15 5.92786 193.186 6.1091 191.425 7.05067C190.545 7.52219 189.355 8.5529 188.703 9.55636C188.861 9.73023 189.095 9.8739 189.438 9.97041C191.978 10.6873 198.739 9.88421 202.637 11.077C204.418 11.6222 206.02 11.5515 206.849 11.038C206.535 10.579 206.006 10.0655 205.218 9.50847Z" fill="#2B454E"/>
<path d="M215.435 12.1331C214.911 11.8576 214.66 11.2976 214.514 10.706C214.196 9.4123 213.677 8.16793 212.98 7.03186C212.804 6.74453 212.612 6.45572 212.541 6.1264C212.469 5.79633 212.547 5.4088 212.821 5.21283C213.185 4.95275 213.691 5.13252 214.089 5.3366C216.081 6.35479 217.696 7.76124 218.646 9.83077C218.888 10.3583 219.071 11.0037 218.76 11.4944C218.479 11.9401 217.904 12.0786 217.387 12.1795C216.866 12.2812 216.327 12.3829 215.809 12.2679C215.671 12.2377 215.547 12.1913 215.435 12.1331Z" fill="#CBCBCB"/>
<path d="M218.138 11.9745C218.091 11.7225 218.005 11.4698 217.899 11.2399C216.95 9.16966 215.334 7.76394 213.343 6.74575C213.141 6.64261 212.912 6.54683 212.688 6.50926C212.774 6.68902 212.875 6.86216 212.979 7.03235C213.676 8.16842 214.196 9.41279 214.515 10.7065C214.66 11.2981 214.91 11.8581 215.436 12.1336C215.547 12.1918 215.671 12.2382 215.809 12.2684C216.327 12.3834 216.866 12.2817 217.387 12.18C217.638 12.1307 217.9 12.0717 218.138 11.9745Z" fill="#2B454E"/>
<path d="M201.05 13.9192C188.78 15.4501 180.898 20.3841 178.078 25.4022C178.391 26.4248 178.984 27.5468 179.994 27.1902C179.994 27.1902 179.865 26.4808 179.817 26.0969C183.008 22.1022 197.252 14.5579 209.072 16.139C220.359 17.6486 220.463 21.7015 220.463 21.7015C220.463 21.7015 222.019 22.1155 222.863 20.6103C219.817 16.0904 215.163 12.1583 201.05 13.9192Z" fill="#CBCBCB"/>
<path d="M189.858 36.751C188.492 35.7416 185.719 33.7399 185.719 33.7399C186.718 33.7775 187.32 33.513 187.737 33.2168L190.183 34.9098L189.858 36.751Z" fill="white"/>
<path d="M207.974 25.5403L206.684 36.3794L212.216 35.9241L207.974 25.5403Z" fill="#FF9A79"/>
<path d="M194.131 21.2264C194.48 19.4118 200.953 19.8907 207.222 20.1353C213.406 20.377 218.329 20.1154 219.46 21.5381C219.581 21.6898 221.453 23.6135 221.833 24.0135C221.996 24.1859 222.099 24.3841 222.135 24.614C222.454 26.6165 222.04 33.3872 220.572 34.7657C219.104 36.1434 212.015 35.4369 211.5 34.1785C211.338 33.7792 211.089 33.1699 210.825 32.5237C210.149 30.8705 209.79 29.9923 209.622 29.5598C209.403 29.4957 208.887 29.5134 208.411 30.0446C208.125 30.3496 207.815 30.827 207.515 31.577C206.514 34.0724 206.667 34.2544 204.997 34.415C203.327 34.5763 198.614 34.4238 197.388 33.7055C197.244 33.6208 197.112 33.5139 196.995 33.3894C196.588 32.9584 194.672 30.9611 194.556 30.8403C192.769 28.9851 193.803 22.9305 194.131 21.2264Z" fill="#1A2E35"/>
<path d="M209.671 22.6933C216.519 22.9608 221.82 22.6116 222.139 24.614C222.458 26.6158 222.043 33.3865 220.575 34.765C219.108 36.1427 212.018 35.4369 211.504 34.1778C210.99 32.9194 209.622 29.5702 209.622 29.5702C209.622 29.5702 208.518 29.081 207.518 31.5763C206.518 34.0724 206.67 34.2537 205 34.415C203.331 34.5764 198.618 34.4231 197.391 33.7048C195.081 32.3514 196.231 25.5991 196.58 23.7845C196.929 21.9699 203.402 22.4487 209.671 22.6933Z" fill="#004D99"/>
<path d="M209.618 29.5708C209.318 29.4632 208.976 29.5612 208.716 29.7373C208.45 29.9134 208.233 30.1528 208.046 30.4085C207.684 30.9323 207.451 31.5276 207.217 32.1052C206.974 32.6762 206.782 33.2951 206.444 33.7813C206.096 34.2639 205.4 34.2477 204.799 34.3074C203.563 34.3994 202.307 34.3751 201.062 34.3103C200.44 34.2727 199.817 34.2189 199.2 34.135C198.584 34.0539 197.956 33.9714 197.387 33.7054C198.52 34.269 199.814 34.3508 201.051 34.4739C202.303 34.5652 203.556 34.6197 204.818 34.552C205.134 34.524 205.445 34.4915 205.764 34.4215C206.077 34.3597 206.417 34.1858 206.607 33.9043C206.972 33.3488 207.134 32.7447 207.369 32.1649C207.59 31.5792 207.808 30.9949 208.145 30.4755C208.458 29.9848 208.965 29.4205 209.618 29.5708Z" fill="white"/>
<path d="M209.668 22.6935C211.623 22.8173 213.582 22.874 215.538 22.9359C216.515 22.9757 217.493 23.0228 218.464 23.1179C219.425 23.2225 220.42 23.3433 221.266 23.7625C222.233 24.1353 222.078 25.3045 222.133 26.2409C222.143 27.2164 222.101 28.1933 222.02 29.1666C221.938 30.1398 221.811 31.1101 221.616 32.0657C221.415 33.0095 221.211 34.0092 220.572 34.7651C221.245 34.0335 221.494 33.0308 221.733 32.0915C221.947 31.1322 222.086 30.1582 222.183 29.1813C222.278 28.2044 222.335 27.223 222.338 26.2395C222.333 25.7473 222.328 25.2559 222.266 24.7601C222.238 24.2303 221.837 23.7603 221.381 23.5459C220.455 23.1061 219.458 23.0096 218.483 22.9145C217.503 22.8327 216.523 22.7988 215.544 22.7731L209.668 22.6935Z" fill="white"/>
<path d="M199.304 33.218C201.181 33.5069 203.831 33.54 204.904 33.4354C205.768 33.3529 205.768 33.3529 206.281 32.0326L206.603 31.2119C207.625 28.6605 208.953 28.4609 209.654 28.5684C209.831 28.5957 209.958 28.645 210.019 28.6716L210.381 28.8322L212.374 33.7117C212.55 33.8347 213.194 34.1301 214.576 34.3431C217.203 34.7475 219.485 34.4388 219.901 34.0484C220.901 33.109 221.508 26.921 221.166 24.7697C221.165 24.7653 221.084 24.377 219.374 24.1133C217.905 23.8871 215.805 23.8392 213.373 23.784C212.198 23.7567 210.943 23.728 209.631 23.6771L207.75 23.599C203.955 23.437 198.223 23.1924 197.514 24.0426C196.661 28.5669 196.802 32.2212 197.887 32.8563C197.964 32.902 198.297 33.0633 199.304 33.218Z" fill="url(#paint0_linear_271_15504)"/>
<path d="M213.373 23.7836C213.437 23.7851 213.499 23.7866 213.563 23.788L220.632 32.226C220.427 33.1057 220.179 33.7857 219.9 34.048C219.777 34.1629 219.476 34.2683 219.068 34.353L210.137 23.693C211.263 23.7328 212.353 23.76 213.373 23.7836Z" fill="url(#paint1_linear_271_15504)"/>
<path d="M201.925 23.4391L207.31 29.8672C207.067 30.2223 206.827 30.6518 206.602 31.2118L206.28 32.0325C206.22 32.1872 206.168 32.3206 206.12 32.4414L198.727 23.6174C199.541 23.4921 200.669 23.4435 201.925 23.4391Z" fill="url(#paint2_linear_271_15504)"/>
<path d="M218.038 23.9657L221.222 27.7651C221.177 28.5792 221.096 29.439 220.985 30.2598L215.609 23.8419C216.496 23.8707 217.313 23.9075 218.038 23.9657Z" fill="url(#paint3_linear_271_15504)"/>
<path d="M213.553 34.1417L211.593 31.8017L210.38 28.8319L210.018 28.6713C209.957 28.6448 209.83 28.5961 209.653 28.5689C209.453 28.5379 209.199 28.5409 208.918 28.6079L204.621 23.4802C205.444 23.5045 206.26 23.5369 207.021 23.5686L216.184 34.5049C215.67 34.4769 215.134 34.429 214.575 34.3428C214.172 34.2809 213.838 34.2117 213.553 34.1417Z" fill="url(#paint4_linear_271_15504)"/>
<path d="M197.035 27.5234C197.089 26.8493 197.173 26.1324 197.286 25.3824L204.069 33.4786C203.486 33.4948 202.768 33.4889 202.006 33.4572L197.035 27.5234Z" fill="url(#paint5_linear_271_15504)"/>
<path d="M173.383 37.9978C165.57 36.7505 162.24 35.7603 151.035 38.6771C142.263 40.9602 133.16 43.1896 126.71 44.9718C120.899 46.578 119.243 49.1087 116.124 56.6847C114.01 61.8228 109.28 75.7709 107.867 80.6549C106.454 85.538 119.636 88.2736 122.88 83.207C126.126 78.1403 135.603 62.894 135.603 62.894C135.603 62.894 152.089 60.823 157.051 60.2764C162.015 59.7297 174.058 53.3362 173.383 37.9978Z" fill="#004D99"/>
<mask id="mask18_271_15504" style="mask-type:luminance" maskUnits="userSpaceOnUse" x="107" y="36" width="67" height="50">
<path d="M107.762 36.7736H173.411V85.9141H107.762V36.7736Z" fill="white"/>
</mask>
<g mask="url(#mask18_271_15504)">
<g opacity="0.199997">
<path d="M173.383 37.9983C165.57 36.7509 162.24 35.7607 151.035 38.6775C142.263 40.9607 133.16 43.1901 126.71 44.9723C120.899 46.5784 119.243 49.1092 116.124 56.6852C114.01 61.8233 109.28 75.7714 107.867 80.6553C106.454 85.5385 119.636 88.2741 122.88 83.2074C126.126 78.1408 135.603 62.8945 135.603 62.8945C135.603 62.8945 152.089 60.8235 157.051 60.2768C162.015 59.7302 174.058 53.3367 173.383 37.9983Z" fill="black"/>
</g>
</g>
<path d="M8.86384 31.576C7.81913 30.9019 0 27.2852 0 27.2852C0 27.2852 6.74347 32.5397 7.84197 33.2219L8.86384 31.576Z" fill="white"/>
<path d="M9.213 36.3709C7.60541 37.2314 6.34999 36.452 6.40819 34.6292C6.46713 32.8073 7.8176 30.6324 9.42445 29.7711C11.032 28.9106 12.2882 29.6908 12.2293 31.5128C12.1711 33.3355 10.8206 35.5104 9.213 36.3709Z" fill="#004D99"/>
<path d="M9.06172 34.1234L9.0993 34.1484C10.7717 35.1813 116.845 100.936 118.346 101.863L118.359 101.873C118.485 101.952 118.658 101.95 118.858 101.842C119.247 101.63 119.568 101.101 119.581 100.659C119.582 100.628 119.581 100.601 119.577 100.571C119.575 100.546 119.572 100.521 119.567 100.494C119.541 100.356 119.477 100.26 119.386 100.203C118.106 99.4112 12.5885 34.0026 10.0195 32.4126C10.0033 32.4016 9.98708 32.3905 9.96866 32.3824C9.86846 32.3353 9.73658 32.3412 9.58997 32.4149C9.37558 32.5209 9.17886 32.7479 9.04478 33.0087C8.949 33.1936 8.88564 33.3999 8.87311 33.5937C8.85764 33.8515 8.93205 34.0372 9.06172 34.1234Z" fill="white"/>
<path d="M123.713 107.354C125.308 106.5 126.648 104.341 126.706 102.533C126.735 101.629 126.438 100.983 125.935 100.67C124.959 100.065 124.524 100.117 123.554 100.285C122.584 100.453 122.081 100.367 121.455 99.9783C117.509 97.5279 111.374 93.7182 109.005 92.2476C108.129 91.6626 108.215 90.3394 106.86 90.0499C105.619 89.7839 104.639 90.945 104.089 91.8314C103.539 92.7169 102.933 94.1101 103.722 95.1055C104.595 96.2069 105.765 95.5041 106.684 96.0743C109.082 97.5633 115.17 101.344 119.095 103.781C119.72 104.169 120.02 104.582 120.299 105.525C120.579 106.469 120.725 106.882 121.701 107.488C122.205 107.801 122.915 107.781 123.713 107.354Z" fill="#004D99"/>
<mask id="mask19_271_15504" style="mask-type:luminance" maskUnits="userSpaceOnUse" x="103" y="90" width="24" height="18">
<path d="M103.344 90.0108H126.708V107.702H103.344V90.0108Z" fill="white"/>
</mask>
<g mask="url(#mask19_271_15504)">
<g opacity="0.149994">
<path d="M123.713 107.354C125.308 106.5 126.648 104.342 126.706 102.534C126.735 101.629 126.438 100.984 125.935 100.67C124.959 100.065 124.524 100.117 123.554 100.285C122.584 100.453 122.081 100.367 121.455 99.9786C117.509 97.5282 111.374 93.7184 109.005 92.2479C108.129 91.6629 108.215 90.3397 106.86 90.0501C105.619 89.7842 104.639 90.9453 104.089 91.8316C103.539 92.7172 102.933 94.1104 103.722 95.1057C104.595 96.2072 105.765 95.5043 106.684 96.0745C109.082 97.5635 115.17 101.345 119.095 103.781C119.72 104.169 120.02 104.582 120.299 105.526C120.579 106.469 120.725 106.883 121.701 107.488C122.205 107.801 122.915 107.781 123.713 107.354Z" fill="black"/>
</g>
</g>
<path d="M126.445 102.673C126.471 101.851 126.201 101.265 125.743 100.98C125.285 100.696 124.64 100.714 123.914 101.103C122.464 101.878 121.246 103.841 121.193 105.485C121.167 106.307 121.437 106.894 121.895 107.179C122.353 107.462 122.998 107.444 123.723 107.056C125.174 106.28 126.392 104.318 126.445 102.673Z" fill="#004D99"/>
<path d="M120.088 81.0379C120.81 81.533 121.224 82.1975 121.543 82.9151C120.898 84.6995 120.513 86.2401 120.387 87.3798C120.153 89.4906 121.373 91.0393 122.11 93.209C122.779 95.1798 122.185 97.8977 122.049 100.263C121.479 100.064 120.101 99.1538 118.869 98.3714C118.869 98.3714 117.651 98.532 117.201 99.8751C116.824 101.002 116.799 102.39 118.037 103.123C119.764 104.008 119.872 104.511 119.872 104.511C119.093 105.269 117.568 107.03 115.574 106.31C115.315 106.216 114.899 105.912 114.441 105.107C113.418 105.133 112.185 105.006 111.276 103.871C108.942 102.831 106.567 101.427 105.941 100.091C105.358 98.8466 104.438 94.057 104.883 92.4244C105.706 89.4044 107.175 85.7914 108.457 82.8149C108.644 82.3803 108.871 81.6848 109.131 80.8014C112.46 78.7378 116.693 79.0745 120.088 81.0379Z" fill="#CBCBCB"/>
<path d="M110.493 101.696L109.746 99.3545L109.695 99.3655C109.801 100.181 109.934 100.992 110.09 101.798L110.45 103.488C110.706 103.611 110.964 103.731 111.222 103.846C110.94 103.145 110.705 102.424 110.493 101.696Z" fill="#1A2E35"/>
<path d="M108.616 102.272C108.391 101.921 108.075 101.143 107.874 100.447L107.195 98.1118L107.145 98.1228C107.251 98.9377 107.383 99.7488 107.539 100.555L107.848 102.005C108.209 102.254 108.601 102.496 109.014 102.732C108.918 102.663 108.787 102.539 108.616 102.272Z" fill="#1A2E35"/>
<path d="M114.441 105.107C114.443 105.11 114.444 105.112 114.445 105.114C114.147 104.383 113.902 103.627 113.681 102.866L112.934 100.524L112.883 100.535C112.989 101.351 113.122 102.161 113.278 102.968L113.729 105.09C113.973 105.108 114.213 105.113 114.441 105.107Z" fill="#1A2E35"/>
<path d="M119.762 93.2592C120.075 94.3761 119.32 97.7681 118.867 98.3722L119.541 98.801C119.541 98.801 120.905 95.1924 119.762 93.2592Z" fill="#1A2E35"/>
<path d="M192.832 48.2226C190.929 48.0325 188.434 47.0069 185.25 43.5339C182.065 40.0608 183.166 36.6217 183.166 36.6217L184.551 35.5902C184.551 35.5902 180.882 31.5875 179.993 27.1898C173.108 26.9099 167.531 29.1547 164.292 31.2928C162.402 32.5401 160.597 35.4812 160.946 36.8538C164.422 36.6637 170.517 37.1846 173.642 40.4896C176.768 43.794 179.097 47.8579 184.088 51.0215C187.931 53.4579 194.829 53.606 196.305 51.5217C197.781 49.4382 200.801 46.6216 200.801 46.6216L199.455 46.0462L196.961 47.9389C196.961 47.9389 195.437 48.4834 192.832 48.2226Z" fill="#004D99"/>
<mask id="mask20_271_15504" style="mask-type:luminance" maskUnits="userSpaceOnUse" x="159" y="35" width="41" height="27">
<path d="M159.141 35.3638H199.042V61.167H159.141V35.3638Z" fill="white"/>
</mask>
<g mask="url(#mask20_271_15504)">
<g opacity="0.199997">
<path d="M201.913 45.5153C201.913 45.5153 198.892 48.3371 197.419 50.4147C196.859 51.203 195.51 51.6746 193.845 51.8145C193.624 51.8366 193.396 51.8514 193.168 51.8587C190.56 51.9472 187.384 51.2988 185.196 49.9137C180.208 46.7531 177.88 42.6862 174.756 39.3856C171.625 36.0776 165.532 35.5618 162.055 35.746C161.708 34.3757 163.513 31.436 165.4 30.1909C168.641 28.047 174.218 25.8073 181.107 26.0872C181.991 30.4856 185.66 34.4862 185.66 34.4862L184.275 35.5176C184.275 35.5176 183.177 38.9583 186.36 42.4283C189.543 45.9058 192.04 46.9299 193.941 47.1214C194.759 47.2025 195.474 47.2025 196.063 47.1656C196.232 47.1583 196.387 47.1435 196.527 47.1288C197.529 47.0257 198.074 46.8341 198.074 46.8341L200.565 44.9407L201.913 45.5153Z" fill="white"/>
</g>
</g>
<path d="M185.25 43.5339C182.065 40.0609 183.166 36.6224 183.166 36.6224L184.551 35.5903C184.551 35.5903 181.541 32.2977 180.317 28.4055C177.447 27.8868 173.967 28.5064 172.179 29.5099C169.564 30.9789 170.126 32.5696 173.67 34.8771C177.215 37.1853 184.068 44.6876 189.183 46.9075V46.906C188.008 46.1877 186.702 45.1172 185.25 43.5339Z" fill="#1A2E35"/>
<path d="M195.416 48.233C195.305 49.5444 194.274 50.6496 193.515 51.6884C193.22 52.0862 192.948 52.4914 192.734 52.9188C192.52 53.3461 192.358 53.7955 192.292 54.2965C192.13 55.3721 192.159 56.4846 192.071 57.5676C191.806 60.7062 191.253 63.8669 190.325 66.9023C189.131 70.7849 187.333 74.4687 184.762 77.6367C183.598 79.066 182.272 80.3111 180.924 81.5562C179.458 82.9192 178.161 84.3411 177.262 86.1535C176.268 88.1354 175.45 90.2204 174.566 92.2538C174.271 92.9316 173.976 93.6168 173.682 94.2946C173.416 94.3388 173.144 94.383 172.871 94.4272L174.249 91.2445C174.742 90.0952 175.243 88.9458 175.737 87.7965C176.194 86.7503 176.636 85.6968 177.233 84.7242C178.227 83.1108 179.642 81.8288 181.034 80.5616C182.427 79.3018 183.731 77.9683 184.865 76.4653C187.031 73.6067 188.601 70.3355 189.684 66.9244C189.743 66.7476 189.794 66.5707 189.838 66.3939C190.84 63.0712 191.4 59.6232 191.607 56.1678C191.666 55.1953 191.629 54.186 191.946 53.2503C191.975 53.1545 192.012 53.0587 192.056 52.963C192.292 52.3957 192.638 51.8873 193.006 51.401C193.721 50.458 194.701 49.456 194.951 48.2699C195.121 48.2625 195.276 48.2478 195.416 48.233Z" fill="#1A2E35"/>
<path d="M198.301 48.7943C198.096 48.5637 197.713 48.5741 197.451 48.7369C197.188 48.899 197.018 49.1738 196.865 49.4419C196.8 49.5569 196.741 49.6762 196.685 49.7971C196.142 49.9083 195.597 50.0962 195.059 50.2001C194.347 50.3378 193.624 50.4285 192.898 50.4483C192.227 50.4668 191.546 50.4402 190.877 50.368C190.69 50.3474 190.5 50.315 190.309 50.2804C190.318 50.2244 190.334 50.1669 190.338 50.1131C190.477 48.5328 188.344 48.3766 187.586 49.4213C187.436 49.6283 187.343 49.8774 187.319 50.1315C187.298 50.354 187.328 50.5802 187.418 50.7858C187.762 51.5756 188.905 51.7634 189.615 51.4054C189.85 51.2868 190.021 51.0738 190.141 50.8307C190.45 50.8963 190.763 50.9442 191.06 50.9854C191.81 51.0901 192.56 51.1151 193.315 51.0797C194.049 51.0451 194.781 50.9552 195.498 50.7931C195.796 50.7254 196.156 50.6554 196.497 50.5485C196.428 52.0117 197.892 50.9619 198.234 50.2612C198.415 49.8899 198.612 49.145 198.301 48.7943Z" fill="#E1E1E1"/>
<defs>
<linearGradient id="paint0_linear_271_15504" x1="209.111" y1="34.5332" x2="209.111" y2="23.4374" gradientUnits="userSpaceOnUse">
<stop stop-color="#66EFF8"/>
<stop offset="1" stop-color="#166278"/>
</linearGradient>
<linearGradient id="paint1_linear_271_15504" x1="215.385" y1="34.353" x2="215.385" y2="23.693" gradientUnits="userSpaceOnUse">
<stop stop-color="#66EFF8"/>
<stop offset="1" stop-color="#166278"/>
</linearGradient>
<linearGradient id="paint2_linear_271_15504" x1="203.018" y1="32.4414" x2="203.018" y2="23.4391" gradientUnits="userSpaceOnUse">
<stop stop-color="#66EFF8"/>
<stop offset="1" stop-color="#166278"/>
</linearGradient>
<linearGradient id="paint3_linear_271_15504" x1="218.416" y1="30.2598" x2="218.416" y2="23.8419" gradientUnits="userSpaceOnUse">
<stop stop-color="#66EFF8"/>
<stop offset="1" stop-color="#166278"/>
</linearGradient>
<linearGradient id="paint4_linear_271_15504" x1="210.402" y1="34.5049" x2="210.402" y2="23.4802" gradientUnits="userSpaceOnUse">
<stop stop-color="#66EFF8"/>
<stop offset="1" stop-color="#166278"/>
</linearGradient>
<linearGradient id="paint5_linear_271_15504" x1="200.552" y1="33.4873" x2="200.552" y2="25.3824" gradientUnits="userSpaceOnUse">
<stop stop-color="#66EFF8"/>
<stop offset="1" stop-color="#166278"/>
</linearGradient>
</defs>
</svg>
