<svg width="338" height="29" viewBox="0 0 338 29" fill="none" xmlns="http://www.w3.org/2000/svg">
<g clip-path="url(#clip0_280_65429)">
<path d="M291.145 0.770508H273.107C270.763 0.770508 268.863 2.67067 268.863 5.01464V23.0522C268.863 25.3962 270.763 27.2963 273.107 27.2963H291.145C293.489 27.2963 295.389 25.3962 295.389 23.0522V5.01464C295.389 2.67067 293.489 0.770508 291.145 0.770508Z" fill="#07A081"/>
<path d="M278.768 18.6649H282.53V15.06H283.664C284.46 15.06 285.223 14.7438 285.786 14.181C286.349 13.6182 286.665 12.8548 286.665 12.0589C286.665 11.2629 286.349 10.4996 285.786 9.93674C285.223 9.37392 284.46 9.05773 283.664 9.05773H278.768V18.6649ZM284.478 20.5864H276.82V7.13673H283.664C284.91 7.11903 286.116 7.57492 287.039 8.41228C287.962 9.24963 288.532 10.406 288.635 11.6478C288.738 12.8897 288.366 14.1243 287.594 15.1023C286.822 16.0804 285.707 16.7289 284.476 16.9168L284.478 20.5864Z" fill="white"/>
<path d="M304.246 18.8084H305.625V15.5404H307.409C307.943 15.5511 308.472 15.4393 308.955 15.2136C309.387 15.0101 309.75 14.6857 310 14.2799C310.257 13.8419 310.386 13.3403 310.371 12.8326C310.387 12.3211 310.258 11.8156 310 11.3737C309.75 10.9678 309.387 10.6435 308.955 10.44C308.472 10.2142 307.943 10.1024 307.409 10.1132H304.246V18.8084ZM305.625 14.3149V11.3387H307.444C307.858 11.3199 308.264 11.4621 308.576 11.7355C308.722 11.8747 308.836 12.0438 308.911 12.2311C308.985 12.4184 309.018 12.6196 309.008 12.821C309.017 13.0221 308.983 13.2229 308.909 13.41C308.834 13.5971 308.721 13.7663 308.576 13.9064C308.267 14.1866 307.861 14.3334 307.444 14.3149H305.625ZM314.155 18.9484C314.748 18.9626 315.333 18.8089 315.842 18.5049C316.286 18.246 316.639 17.8541 316.85 17.3845L315.776 16.8592C315.618 17.1259 315.4 17.3517 315.139 17.5187C314.848 17.7012 314.509 17.7935 314.165 17.7839C313.697 17.793 313.243 17.6229 312.897 17.3086C312.72 17.1448 312.577 16.9475 312.477 16.7281C312.377 16.5087 312.321 16.2716 312.313 16.0306H317.003C317.027 15.931 317.043 15.8294 317.05 15.7271C317.057 15.6182 317.061 15.5132 317.061 15.412C317.066 14.8869 316.944 14.3684 316.705 13.9006C316.471 13.4408 316.116 13.0535 315.678 12.7801C315.188 12.485 314.622 12.3376 314.05 12.3557C313.49 12.3472 312.94 12.4941 312.458 12.7801C311.989 13.0626 311.605 13.4656 311.344 13.9472C311.066 14.4652 310.926 15.0459 310.936 15.6338C310.926 16.2228 311.068 16.8045 311.348 17.3229C311.615 17.8132 312.008 18.2233 312.486 18.5107C312.991 18.8086 313.569 18.9601 314.155 18.9484ZM314.049 13.4629C314.463 13.4519 314.865 13.6026 315.169 13.8831C315.321 14.0237 315.442 14.1933 315.526 14.3818C315.61 14.5703 315.656 14.7738 315.66 14.9802H312.334C312.386 14.5456 312.599 14.1461 312.93 13.8597C313.243 13.5971 313.641 13.4562 314.05 13.4629H314.049ZM317.365 18.8084H318.917L320.353 16.6959L321.776 18.8084H323.329L321.123 15.6454L323.34 12.4942H321.788L320.353 14.5833L318.917 12.4952H317.365L319.571 15.6465L317.365 18.8084ZM326.737 18.9484C327.33 18.9626 327.914 18.8089 328.423 18.5049C328.868 18.246 329.221 17.8541 329.431 17.3845L328.358 16.8592C328.2 17.1259 327.982 17.3517 327.721 17.5187C327.429 17.7012 327.09 17.7935 326.746 17.7839C326.277 17.7951 325.821 17.6259 325.473 17.3112C325.296 17.1475 325.153 16.9502 325.053 16.7308C324.953 16.5114 324.897 16.2743 324.89 16.0332H329.581C329.606 15.9336 329.621 15.8321 329.628 15.7298C329.636 15.6208 329.64 15.5158 329.64 15.4147C329.647 14.8891 329.527 14.3697 329.29 13.9006C329.055 13.4408 328.7 13.0535 328.263 12.7801C327.772 12.485 327.207 12.3376 326.634 12.3557C326.075 12.3472 325.524 12.4941 325.043 12.7801C324.574 13.0626 324.189 13.4656 323.929 13.9472C323.651 14.4652 323.51 15.0459 323.52 15.6338C323.51 16.2227 323.652 16.8044 323.931 17.3229C324.198 17.813 324.59 18.2231 325.068 18.5107C325.573 18.8086 326.151 18.9601 326.737 18.9484ZM326.631 13.4629C327.045 13.4519 327.447 13.6026 327.751 13.8831C327.902 14.0237 328.024 14.1933 328.108 14.3818C328.192 14.5703 328.237 14.7738 328.241 14.9802H324.915C324.967 14.5456 325.179 14.1461 325.51 13.8597C325.824 13.5968 326.222 13.4559 326.632 13.4629H326.631ZM330.693 18.8084H332.012V9.97314H330.693V18.8084ZM335.656 18.9484C336.079 18.9572 336.498 18.8756 336.887 18.7092C337.218 18.5685 337.503 18.338 337.71 18.0439C337.907 17.7531 338.009 17.4086 338.002 17.0577C338.01 16.6426 337.859 16.24 337.582 15.9314C337.255 15.5889 336.837 15.3478 336.377 15.2369L335.35 14.9356C335.157 14.874 334.973 14.7877 334.802 14.6788C334.719 14.6277 334.651 14.5552 334.606 14.4689C334.561 14.3827 334.54 14.2859 334.545 14.1886C334.541 14.0851 334.563 13.9822 334.607 13.8887C334.652 13.7952 334.719 13.7139 334.802 13.6517C335.003 13.5102 335.246 13.4403 335.491 13.4533C335.813 13.4495 336.128 13.5431 336.396 13.7218C336.66 13.8972 336.865 14.1488 336.982 14.4433L337.998 13.9658C337.823 13.4742 337.486 13.0565 337.043 12.7812C336.581 12.4951 336.047 12.3478 335.504 12.3568C335.106 12.3505 334.712 12.4322 334.349 12.596C334.026 12.7394 333.748 12.9672 333.543 13.2555C333.345 13.5477 333.243 13.8945 333.252 14.2475C333.244 14.6542 333.388 15.0492 333.654 15.3563C333.984 15.7038 334.408 15.9473 334.874 16.0566L335.866 16.3367C336.069 16.3911 336.261 16.4757 336.438 16.5876C336.525 16.6402 336.595 16.7151 336.643 16.8045C336.69 16.8939 336.712 16.9944 336.707 17.0953C336.71 17.2075 336.685 17.3187 336.634 17.4186C336.583 17.5186 336.508 17.6041 336.415 17.6672C336.191 17.8167 335.925 17.891 335.656 17.8794C335.299 17.8821 334.95 17.7718 334.658 17.5643C334.351 17.3459 334.107 17.0504 333.95 16.7075L332.934 17.185C333.123 17.7144 333.482 18.166 333.956 18.4688C334.462 18.7944 335.054 18.9614 335.656 18.9484Z" fill="black"/>
</g>
<g clip-path="url(#clip1_280_65429)">
<path fill-rule="evenodd" clip-rule="evenodd" d="M150.366 14.0022C150.366 20.2797 145.269 25.3757 138.993 25.3757C132.706 25.3757 127.609 20.279 127.609 14.0022C127.609 7.71589 132.707 2.62939 138.993 2.62939C145.269 2.62939 150.366 7.71589 150.366 14.0022Z" fill="#CC2229"/>
<path fill-rule="evenodd" clip-rule="evenodd" d="M130.797 9.05982V12.3618H132.469V12.3726H136.54C136.758 12.3731 136.966 12.4597 137.12 12.6133C137.274 12.767 137.36 12.9753 137.361 13.1927V25.4476H140.612V13.1934C140.612 12.9761 140.699 12.7679 140.853 12.6142C141.006 12.4606 141.215 12.374 141.432 12.3733L147.134 12.3625V9.06049L130.797 9.05982ZM141.227 6.22926C141.227 5.34711 140.243 4.63965 139.022 4.63965C137.801 4.63965 136.817 5.34711 136.817 6.22926C136.817 7.1114 137.801 7.82967 139.022 7.82967C140.243 7.82967 141.227 7.1114 141.227 6.22926Z" fill="white"/>
<path fill-rule="evenodd" clip-rule="evenodd" d="M156.588 16.9726H153.098V15.9172H154.075V12.0696H153.098V11.0134H156.588V12.0696H155.612V15.9172H156.588V16.9726ZM162.156 13.7866V16.9726H160.706V14.7268C160.706 14.5083 160.701 14.3221 160.692 14.169C160.681 14.0146 160.651 13.8905 160.603 13.7947C160.556 13.699 160.483 13.6282 160.384 13.5843C160.287 13.5405 160.151 13.5189 159.975 13.5189C159.833 13.519 159.692 13.5484 159.562 13.6052C159.438 13.6577 159.318 13.7186 159.203 13.7873V16.9733H157.761V12.4783H159.203V12.974C159.423 12.7968 159.662 12.644 159.915 12.5181C160.15 12.407 160.407 12.3509 160.667 12.3542C160.963 12.3542 161.225 12.4196 161.452 12.5525C161.678 12.6846 161.856 12.8789 161.985 13.1345C162.242 12.9129 162.524 12.7208 162.825 12.5619C163.072 12.4301 163.346 12.3589 163.626 12.3542C164.112 12.3542 164.481 12.5005 164.733 12.7899C164.986 13.0812 165.112 13.5007 165.112 14.047V16.9733H163.662V14.7275C163.662 14.5063 163.658 14.3201 163.648 14.167C163.644 14.0388 163.615 13.9125 163.563 13.7954C163.519 13.701 163.442 13.6261 163.347 13.585C163.248 13.5412 163.109 13.5196 162.93 13.5196C162.809 13.5196 162.692 13.5398 162.577 13.581C162.461 13.6207 162.321 13.6909 162.156 13.7866ZM171.126 14.6634C171.126 15.0337 171.069 15.3715 170.956 15.6764C170.858 15.9539 170.706 16.2095 170.509 16.4284C170.327 16.6295 170.105 16.7902 169.857 16.8998C169.614 17.0063 169.355 17.0596 169.077 17.0596C168.857 17.0643 168.637 17.0366 168.425 16.9773C168.235 16.9187 168.052 16.8419 167.877 16.748V18.6209H166.436V12.4769H167.877V12.9456C168.085 12.7771 168.313 12.6332 168.554 12.5167C168.805 12.4033 169.078 12.3473 169.354 12.3528C169.914 12.3528 170.35 12.5592 170.66 12.9692C170.971 13.38 171.126 13.9445 171.126 14.6634ZM169.641 14.6911C169.641 14.254 169.566 13.9357 169.417 13.7388C169.267 13.5405 169.031 13.4427 168.709 13.4427C168.573 13.4427 168.433 13.4629 168.289 13.5041C168.144 13.5459 168.006 13.6052 167.876 13.6835V15.9448C167.972 15.9819 168.074 16.0062 168.184 16.017C168.293 16.0278 168.402 16.0332 168.509 16.0332C168.89 16.0332 169.174 15.9212 169.361 15.6986C169.547 15.4747 169.641 15.1389 169.641 14.6911ZM174.888 15.7998V14.863C174.693 14.8792 174.482 14.9015 174.255 14.9284C174.08 14.9473 173.908 14.9802 173.738 15.0269C173.612 15.061 173.498 15.1297 173.409 15.2252C173.329 15.3212 173.289 15.4437 173.295 15.5685C173.295 15.6609 173.303 15.7378 173.32 15.7964C173.336 15.8551 173.376 15.9111 173.44 15.9644C173.503 16.0193 173.578 16.0594 173.659 16.0817C173.744 16.108 173.878 16.1208 174.059 16.1208C174.21 16.119 174.358 16.0893 174.498 16.0332C174.646 15.9738 174.776 15.8956 174.888 15.7998ZM174.888 16.4958C174.811 16.5545 174.714 16.6253 174.599 16.7089C174.497 16.7834 174.389 16.8487 174.275 16.9038C174.135 16.968 173.987 17.0157 173.835 17.0461C173.671 17.0786 173.503 17.0942 173.336 17.0927C172.908 17.0927 172.55 16.9598 172.261 16.6961C171.973 16.4311 171.83 16.0932 171.83 15.6838C171.83 15.3547 171.903 15.0863 172.05 14.8792C172.197 14.6701 172.404 14.5063 172.674 14.3862C172.941 14.2675 173.272 14.1812 173.668 14.1306C174.075 14.0786 174.485 14.0413 174.896 14.0187V13.9944C174.896 13.7469 174.795 13.5749 174.591 13.4805C174.389 13.386 174.09 13.3382 173.695 13.3382C173.436 13.3413 173.18 13.3838 172.935 13.4643C172.74 13.5234 172.546 13.5881 172.354 13.6585H172.222V12.574C172.374 12.5342 172.623 12.4864 172.966 12.4324C173.307 12.3778 173.651 12.3503 173.996 12.3501C174.816 12.3501 175.408 12.4762 175.771 12.7292C176.136 12.9821 176.317 13.3766 176.317 13.9161V16.974H174.888L174.888 16.4958ZM179.984 17.0927C179.621 17.0967 179.259 17.0492 178.908 16.9517C178.6 16.867 178.313 16.7199 178.063 16.5194C177.823 16.3214 177.633 16.0689 177.51 15.7829C177.38 15.4869 177.314 15.1395 177.314 14.7423C177.314 14.3242 177.384 13.962 177.525 13.6572C177.664 13.3537 177.859 13.1014 178.111 12.8998C178.361 12.7075 178.647 12.5663 178.952 12.4843C179.269 12.396 179.599 12.3522 179.94 12.3522C180.247 12.3522 180.529 12.3859 180.789 12.452C181.046 12.5187 181.289 12.6064 181.512 12.713V13.9411H181.309L181.106 13.7732C180.913 13.6217 180.692 13.5086 180.456 13.44C180.307 13.3982 180.154 13.3784 180 13.3813C179.615 13.3813 179.319 13.5027 179.113 13.7475C178.905 13.9917 178.803 14.3242 178.803 14.7423C178.803 15.1753 178.908 15.5031 179.121 15.727C179.333 15.9509 179.634 16.0628 180.023 16.0628C180.205 16.0628 180.369 16.0426 180.513 16.0015C180.659 15.9596 180.779 15.9111 180.875 15.8551C180.967 15.8018 181.046 15.7458 181.115 15.6872C181.185 15.6285 181.249 15.5712 181.308 15.5152H181.512V16.7433C181.284 16.8502 181.046 16.9354 180.802 16.9976C180.534 17.0635 180.26 17.0954 179.984 17.0927ZM185.339 16.9328C185.177 16.9737 185.012 17.0052 184.846 17.0273C184.635 17.0511 184.422 17.0622 184.209 17.0603C183.649 17.0603 183.233 16.947 182.959 16.7197C182.686 16.4931 182.55 16.1053 182.55 15.5557V13.4542H181.956V12.4776H182.55V11.1935H183.99V12.4776H185.339V13.4542H183.99V15.0471C183.99 15.2043 183.991 15.3425 183.994 15.4599C183.996 15.5772 184.019 15.6825 184.058 15.7755C184.095 15.8686 184.162 15.9435 184.256 15.9981C184.35 16.0527 184.49 16.0797 184.67 16.0797C184.745 16.0797 184.843 16.0635 184.965 16.0325C185.088 15.9994 185.172 15.9704 185.22 15.9435H185.34V16.9328H185.339ZM189.014 14.8981H185.958V13.7462H189.014V14.8981ZM194.877 12.1647H193.015V16.9726H191.478V12.1647H189.617V11.0127H194.877V12.1647ZM198.98 13.8507H198.851C198.755 13.8225 198.655 13.8064 198.555 13.8028C198.442 13.7932 198.329 13.788 198.215 13.7873C198.01 13.7873 197.829 13.8008 197.671 13.8271C197.514 13.8541 197.345 13.8993 197.164 13.9633V16.9733H195.721V12.4783H197.164V13.1385C197.48 12.8667 197.757 12.6867 197.991 12.5963C198.252 12.4916 198.532 12.4474 198.812 12.4668C198.877 12.4695 198.933 12.4736 198.981 12.4789V13.8507H198.98ZM202.517 15.7998V14.863C202.323 14.8792 202.111 14.9015 201.884 14.9284C201.709 14.9473 201.537 14.9802 201.367 15.0269C201.241 15.061 201.127 15.1297 201.038 15.2252C200.959 15.3214 200.918 15.4438 200.924 15.5685C200.924 15.6609 200.932 15.7378 200.949 15.7964C200.964 15.8551 201.004 15.9111 201.069 15.9644C201.129 16.0176 201.202 16.0574 201.289 16.0817C201.373 16.108 201.507 16.1208 201.689 16.1208C201.839 16.119 201.988 16.0893 202.128 16.0332C202.269 15.9773 202.401 15.8985 202.517 15.7998ZM202.517 16.4958C202.44 16.5545 202.344 16.6253 202.228 16.7089C202.113 16.7905 202.005 16.8566 201.905 16.9038C201.764 16.968 201.617 17.0157 201.465 17.0461C201.3 17.0786 201.133 17.0942 200.965 17.0927C200.537 17.0927 200.18 16.9598 199.891 16.6961C199.602 16.4311 199.459 16.0932 199.459 15.6838C199.459 15.3547 199.532 15.0863 199.679 14.8792C199.826 14.6701 200.034 14.5063 200.303 14.3862C200.57 14.2675 200.901 14.1812 201.297 14.1306C201.705 14.0786 202.115 14.0413 202.525 14.0187V13.9944C202.525 13.7469 202.424 13.5749 202.22 13.4805C202.018 13.386 201.718 13.3382 201.324 13.3382C201.086 13.3382 200.833 13.38 200.564 13.4643C200.294 13.5486 200.102 13.6133 199.984 13.6585H199.852V12.574C200.004 12.5342 200.253 12.4864 200.595 12.4324C200.936 12.3778 201.28 12.3503 201.625 12.3501C202.445 12.3501 203.036 12.4762 203.399 12.7292C203.764 12.9821 203.946 13.3766 203.946 13.9161V16.974H202.517L202.517 16.4958ZM209.642 16.9726H208.202V16.5046C207.991 16.684 207.756 16.8346 207.505 16.9524C207.29 17.0495 207.039 17.0974 206.757 17.0974C206.21 17.0974 205.772 16.887 205.444 16.4648C205.117 16.0426 204.953 15.4741 204.953 14.7598C204.953 14.3795 205.007 14.0402 205.117 13.7448C205.228 13.4494 205.38 13.1972 205.573 12.9868C205.754 12.7872 205.974 12.6314 206.232 12.5208C206.492 12.4102 206.751 12.3542 207.01 12.3542C207.279 12.3542 207.499 12.3825 207.671 12.4398C207.843 12.4972 208.021 12.5693 208.202 12.6583V10.7443H209.642V16.9726ZM208.202 15.7317V13.5263C208.1 13.4832 207.992 13.4528 207.88 13.4333C207.768 13.4137 207.666 13.4063 207.573 13.4063C207.194 13.4063 206.91 13.5236 206.721 13.7597C206.532 13.9964 206.436 14.3242 206.436 14.7423C206.436 15.182 206.511 15.5017 206.664 15.7013C206.816 15.8996 207.061 15.9988 207.397 15.9988C207.527 15.9988 207.665 15.9745 207.812 15.9252C207.96 15.8767 208.09 15.8113 208.202 15.7317ZM212.445 16.9726H211.002V12.4776H212.445V16.9726ZM212.485 11.8362H210.963V10.7437H212.485V11.8362ZM218.321 16.9726H216.871V14.743C216.871 14.5609 216.862 14.3808 216.843 14.2001C216.825 14.0193 216.794 13.8871 216.747 13.8022C216.696 13.7054 216.613 13.6291 216.512 13.5857C216.411 13.5405 216.267 13.5182 216.083 13.5182C215.951 13.5182 215.819 13.5385 215.685 13.5823C215.531 13.6331 215.384 13.7014 215.246 13.786V16.9719H213.805V12.4769H215.246V12.9726C215.473 12.7907 215.721 12.6361 215.984 12.512C216.22 12.4054 216.483 12.3522 216.771 12.3522C217.257 12.3522 217.636 12.4938 217.909 12.777C218.184 13.0596 218.321 13.4818 218.321 14.045V16.9726ZM224.015 16.456C224.015 16.8782 223.955 17.2316 223.835 17.5203C223.714 17.8082 223.546 18.0342 223.33 18.1967C223.114 18.3633 222.853 18.482 222.549 18.5555C222.209 18.6316 221.862 18.6682 221.514 18.6648C221.202 18.6648 220.895 18.6472 220.591 18.6088C220.326 18.5786 220.064 18.5336 219.804 18.4739V17.3476H219.981C220.158 17.4177 220.371 17.4818 220.625 17.5391C220.878 17.5965 221.104 17.6255 221.306 17.6255C221.572 17.6255 221.79 17.5992 221.957 17.5506C222.123 17.5014 222.251 17.4312 222.339 17.3409C222.42 17.2545 222.481 17.1453 222.519 17.0117C222.556 16.8796 222.575 16.7177 222.575 16.5322V16.4472C222.402 16.5895 222.207 16.7031 221.999 16.7838C221.787 16.8667 221.554 16.9079 221.294 16.9079C220.663 16.9079 220.178 16.7184 219.837 16.34C219.496 15.961 219.325 15.3844 219.325 14.6101C219.325 14.2399 219.376 13.9202 219.48 13.6497C219.579 13.3887 219.728 13.1497 219.919 12.9463C220.096 12.7588 220.313 12.6138 220.57 12.5093C220.821 12.4068 221.09 12.3539 221.361 12.3535C221.604 12.3535 221.825 12.3818 222.023 12.4392C222.222 12.4965 222.403 12.5761 222.566 12.6772L222.619 12.4776H224.015V16.456H224.015ZM222.574 15.5557V13.5182C222.476 13.4786 222.374 13.451 222.27 13.436C222.163 13.4171 222.055 13.4072 221.946 13.4063C221.567 13.4063 221.282 13.5142 221.094 13.7313C220.904 13.9499 220.809 14.2534 220.809 14.6425C220.809 15.0748 220.891 15.3763 221.051 15.5469C221.212 15.7182 221.452 15.8039 221.77 15.8039C221.912 15.8039 222.055 15.7809 222.193 15.7357C222.333 15.6905 222.46 15.6305 222.574 15.5557ZM226.925 16.9726H225.427V15.3999H226.925V16.9726ZM230.679 17.0927C230.316 17.0967 229.954 17.0493 229.604 16.9517C229.28 16.8586 228.997 16.715 228.758 16.5194C228.52 16.3245 228.336 16.0797 228.205 15.7829C228.075 15.4862 228.009 15.1395 228.009 14.7423C228.009 14.3242 228.079 13.962 228.22 13.6572C228.359 13.3537 228.554 13.1014 228.806 12.8998C229.056 12.7075 229.341 12.5663 229.646 12.4843C229.968 12.3955 230.301 12.3511 230.635 12.3522C230.941 12.3522 231.224 12.3859 231.484 12.452C231.733 12.5157 231.976 12.6031 232.208 12.713V13.9411H232.004C231.948 13.8939 231.88 13.8372 231.802 13.7732C231.608 13.6217 231.387 13.5086 231.151 13.44C231.003 13.3983 230.849 13.3785 230.695 13.3813C230.31 13.3813 230.014 13.5027 229.808 13.7475C229.601 13.9917 229.498 14.3242 229.498 14.7423C229.498 15.1753 229.604 15.5031 229.817 15.727C230.028 15.9509 230.33 16.0628 230.718 16.0628C230.9 16.0628 231.065 16.0426 231.21 16.0015C231.431 15.9426 231.637 15.8352 231.812 15.6872C231.881 15.6285 231.946 15.5712 232.004 15.5152H232.208V16.7433C231.98 16.8503 231.741 16.9355 231.497 16.9976C231.229 17.0635 230.955 17.0955 230.679 17.0927ZM237.755 14.7261C237.755 15.4653 237.541 16.0487 237.109 16.4736C236.679 16.8998 236.073 17.1129 235.295 17.1129C234.515 17.1129 233.909 16.8998 233.479 16.4736C233.049 16.0487 232.833 15.4653 232.833 14.7261C232.833 13.9822 233.05 13.3975 233.483 12.9726C233.916 12.5491 234.521 12.336 235.296 12.336C236.079 12.336 236.686 12.5504 237.113 12.9767C237.542 13.4049 237.755 13.987 237.755 14.7261ZM235.982 15.8194C236.076 15.7047 236.145 15.5671 236.192 15.4059C236.239 15.2448 236.263 15.0208 236.263 14.7349C236.263 14.4712 236.239 14.25 236.191 14.0713C236.154 13.916 236.086 13.7699 235.99 13.6423C235.911 13.5379 235.805 13.4579 235.682 13.4117C235.558 13.3648 235.427 13.3415 235.295 13.3429C235.155 13.3429 235.033 13.3604 234.925 13.3989C234.803 13.4453 234.696 13.5227 234.614 13.6234C234.525 13.7273 234.456 13.871 234.404 14.051C234.351 14.2331 234.325 14.4604 234.325 14.7356C234.325 14.9817 234.347 15.1948 234.393 15.3749C234.438 15.5536 234.505 15.6986 234.594 15.8086C234.679 15.9131 234.781 15.9886 234.9 16.0365C235.018 16.0858 235.154 16.1087 235.306 16.1087C235.437 16.1087 235.561 16.0871 235.68 16.0426C235.798 15.9981 235.899 15.9232 235.982 15.8194ZM243.184 13.7866V16.9726H241.734V14.7268C241.734 14.5083 241.728 14.3221 241.72 14.169C241.714 14.0397 241.684 13.9126 241.63 13.7947C241.585 13.7006 241.507 13.6259 241.411 13.5843C241.315 13.5405 241.178 13.5189 241.002 13.5189C240.861 13.5189 240.724 13.5472 240.59 13.6052C240.466 13.6576 240.346 13.7184 240.23 13.7873V16.9733H238.789V12.4783H240.23V12.974C240.451 12.7967 240.69 12.6438 240.943 12.5181C241.178 12.4071 241.435 12.351 241.695 12.3542C241.991 12.3542 242.252 12.4196 242.479 12.5525C242.707 12.6846 242.884 12.8789 243.012 13.1345C243.27 12.9129 243.552 12.7208 243.853 12.5619C244.1 12.43 244.374 12.3588 244.654 12.3542C245.14 12.3542 245.509 12.5005 245.761 12.7899C246.014 13.0812 246.139 13.5007 246.139 14.047V16.9733H244.69V14.7275C244.69 14.5063 244.685 14.3201 244.676 14.167C244.672 14.0388 244.643 13.9125 244.591 13.7954C244.546 13.6996 244.473 13.6288 244.375 13.585C244.276 13.5412 244.136 13.5196 243.959 13.5196C243.837 13.5196 243.72 13.5398 243.606 13.581C243.459 13.6357 243.317 13.7046 243.184 13.7866Z" fill="black"/>
</g>
<g clip-path="url(#clip2_280_65429)">
<path fill-rule="evenodd" clip-rule="evenodd" d="M19.0401 9.83154H16.625V10.4391H16.7158C16.7331 9.97424 16.9299 9.95478 17.3234 9.95478C17.4661 9.95478 17.6455 9.95478 17.6455 10.0629V11.9245C17.6455 12.2098 17.5915 12.318 17.2153 12.3352V12.4239C17.412 12.4239 17.626 12.4239 17.825 12.4066C18.039 12.4239 18.2704 12.4239 18.4866 12.4239V12.3352C18.1104 12.318 18.039 12.2098 18.039 11.9245V10.0629C18.039 9.93749 18.2898 9.95478 18.4325 9.95478C18.7893 9.95478 18.9514 10.0629 18.9687 10.4391H19.0768L19.0401 9.83154Z" fill="#231F20"/>
<path fill-rule="evenodd" clip-rule="evenodd" d="M19.7927 11.5288H20.811V11.9764C20.811 12.2639 20.7937 12.3526 20.4889 12.3526V12.4239H21.4553V12.3526C21.1699 12.3526 21.1505 12.2639 21.1505 11.9764V11.0467C21.1505 10.7613 21.1699 10.6705 21.4553 10.6705V10.5991H20.4889V10.6705C20.7937 10.6705 20.811 10.7613 20.811 11.0467V11.4229H19.7927V11.0467C19.7927 10.7613 19.7927 10.6705 20.0954 10.6705V10.5991H19.1289V10.6705C19.4338 10.6705 19.4338 10.7613 19.4338 11.0467V11.9764C19.4338 12.2639 19.4338 12.3526 19.1289 12.3526V12.4239H20.0954V12.3526C19.7927 12.3526 19.7927 12.2639 19.7927 11.9764V11.5288Z" fill="#231F20"/>
<path fill-rule="evenodd" clip-rule="evenodd" d="M22.0275 11.9764C22.0275 12.2639 22.0102 12.3526 21.7227 12.3526V12.4239H23.4221L23.4394 11.9245H23.368C23.2967 12.2985 23.1367 12.3526 22.7605 12.3526C22.4924 12.3526 22.367 12.2812 22.367 12.0845V11.5115C22.7237 11.5115 22.8145 11.5483 22.8318 11.8337H22.9032V11.0294H22.8318C22.8145 11.3688 22.7237 11.4229 22.367 11.4229V10.7245C22.367 10.6899 22.3843 10.6705 22.4383 10.6705H22.7778C23.0999 10.6705 23.1907 10.7418 23.2253 11.064H23.2967V10.5991H21.7227V10.6705C22.0102 10.6705 22.0275 10.7613 22.0275 11.0467V11.9764Z" fill="#231F20"/>
<path fill-rule="evenodd" clip-rule="evenodd" d="M24.7461 12.4067H24.8001L24.891 12.2273C25.105 12.3894 25.319 12.4781 25.5699 12.4781C26.0347 12.4781 26.5168 12.2273 26.5168 11.7084C26.5168 11.1895 26.052 10.9927 25.6585 10.8327C25.4099 10.7246 25.1223 10.6187 25.1223 10.3138C25.1223 10.063 25.3363 9.90303 25.5871 9.90303C25.9634 9.90303 26.1601 10.1884 26.2487 10.5106H26.3396L26.3201 9.83168H26.2682L26.1774 9.99167C25.9979 9.86627 25.8012 9.79492 25.5871 9.79492C25.1591 9.79492 24.8174 10.0457 24.8196 10.4933C24.8174 10.9408 25.1936 11.1354 25.5526 11.2608C25.838 11.3862 26.1428 11.5116 26.1428 11.8705C26.1428 12.1927 25.892 12.37 25.5871 12.37C25.1396 12.37 24.9255 12.0305 24.8369 11.637H24.7461V12.4067Z" fill="#231F20"/>
<path fill-rule="evenodd" clip-rule="evenodd" d="M27.6283 10.5474L27.1288 11.6911C26.9861 12.05 26.9321 12.3527 26.6445 12.3527V12.4241H27.3256V12.3527C27.2175 12.3527 27.0748 12.3527 27.0748 12.21C27.0748 12.1387 27.1094 12.0133 27.1634 11.9052L27.2002 11.7625H27.8985L28.0412 12.1214C28.0585 12.1733 28.0758 12.21 28.0758 12.2641C28.0758 12.3527 27.9504 12.3527 27.8077 12.3527V12.4241H28.6855V12.3527C28.452 12.3527 28.452 12.2446 28.3439 12.0133L27.7537 10.5474H27.6283ZM27.2715 11.6565L27.5764 10.9409L27.8618 11.6565H27.2715Z" fill="#231F20"/>
<path fill-rule="evenodd" clip-rule="evenodd" d="M30.7366 11.0294C30.7366 10.7245 30.808 10.6705 31.0761 10.6705V10.5991H30.3064V10.6705C30.5572 10.6705 30.6285 10.7245 30.6285 11.0294V11.9958H30.6112L29.4675 10.5991H28.9118V10.6705C29.0199 10.6705 29.1453 10.7072 29.2167 10.8132V11.9958C29.2167 12.2985 29.1626 12.3526 28.8945 12.3526V12.4239H29.6642V12.3526C29.4134 12.3526 29.3421 12.2985 29.3421 11.9958V10.958L30.6285 12.478H30.7366V11.0294Z" fill="#231F20"/>
<path fill-rule="evenodd" clip-rule="evenodd" d="M34.2254 9.83154C33.8146 9.83154 33.4038 9.84884 32.9735 9.84884C32.7422 9.84884 32.5087 9.83154 32.2773 9.83154V9.92019C32.4006 9.92019 32.5627 9.92019 32.6168 10.0629C32.6514 10.171 32.6514 10.4564 32.6514 10.5818V11.6909C32.6514 11.8163 32.6514 12.1017 32.6168 12.2098C32.5627 12.3352 32.4006 12.3352 32.2773 12.3352V12.4239C32.4914 12.4239 32.6708 12.4239 32.8849 12.4066C33.0816 12.4239 33.2784 12.4239 33.4751 12.4239V12.3352C33.3497 12.3352 33.153 12.3525 33.0989 12.2098C33.0449 12.1017 33.0449 11.8163 33.0449 11.6909V11.1893C33.4211 11.1893 33.6351 11.2066 33.6892 11.6196H33.78C33.78 11.4574 33.78 11.2801 33.7605 11.1353C33.78 10.958 33.78 10.7785 33.78 10.5991H33.6892C33.6719 10.8672 33.5811 11.1007 33.0449 11.0639V10.1883C33.0643 9.93749 33.0449 9.97424 33.367 9.97424C33.5465 9.97424 33.78 9.97424 33.94 10.0456C34.1194 10.1169 34.154 10.2769 34.2081 10.4564H34.2967L34.2254 9.83154Z" fill="#231F20"/>
<path fill-rule="evenodd" clip-rule="evenodd" d="M34.7658 11.9764C34.7636 12.2639 34.7463 12.3526 34.4609 12.3526V12.4239H35.4274V12.3526C35.1225 12.3526 35.1225 12.2639 35.1225 11.9764V11.6023C35.2479 11.6023 35.2652 11.6023 35.356 11.7083L35.9463 12.4239H36.4998V12.3526C36.3203 12.3526 36.2317 12.2639 36.1236 12.1212L35.6241 11.5288C35.9636 11.4942 36.1776 11.2975 36.1776 11.064C36.1776 10.7072 35.8382 10.5991 35.4447 10.5991H34.4609V10.6705C34.7463 10.6705 34.7636 10.7613 34.7636 11.0467L34.7658 11.9764ZM35.1225 10.744C35.1225 10.6705 35.2306 10.6705 35.3193 10.6705C35.6047 10.6705 35.7841 10.8132 35.7841 11.1007C35.7841 11.3515 35.6047 11.5115 35.2479 11.5115H35.1225V10.744Z" fill="#231F20"/>
<path fill-rule="evenodd" clip-rule="evenodd" d="M37.5188 10.5474L37.0172 11.6911C36.8572 12.05 36.8032 12.3527 36.5156 12.3527V12.4241H37.1967V12.3527C37.0886 12.3527 36.9459 12.3527 36.9459 12.21C36.9459 12.1387 36.9999 12.0133 37.0345 11.9052L37.0886 11.7625H37.7869L37.9123 12.1214C37.9296 12.1733 37.9469 12.21 37.9469 12.2641C37.9469 12.3527 37.841 12.3527 37.6961 12.3527V12.4241H38.5739V12.3527C38.3404 12.3527 38.3231 12.2446 38.2345 12.0133L37.6248 10.5474H37.5188ZM37.1426 11.6565L37.4475 10.9409L37.7329 11.6565H37.1426Z" fill="#231F20"/>
<path fill-rule="evenodd" clip-rule="evenodd" d="M40.6289 11.0294C40.6289 10.7245 40.683 10.6705 40.9511 10.6705V10.5991H40.1814V10.6705C40.4322 10.6705 40.5035 10.7245 40.5035 11.0294V11.9958L39.3425 10.5991H38.7868V10.6705C38.8949 10.6705 39.0203 10.7072 39.109 10.8132V11.9958C39.109 12.2985 39.0376 12.3526 38.7695 12.3526V12.4239H39.5392V12.3526C39.2884 12.3526 39.2171 12.2985 39.2171 11.9958V10.958H39.2344L40.5035 12.478H40.6289V11.0294Z" fill="#231F20"/>
<path fill-rule="evenodd" clip-rule="evenodd" d="M43.0129 11.7798H42.9589C42.8875 12.05 42.6908 12.3895 42.2973 12.3895C41.7957 12.3895 41.653 11.9419 41.653 11.5117C41.653 11.0836 41.7957 10.636 42.2973 10.636C42.6367 10.636 42.8508 10.8328 42.9221 11.1549H42.9935L42.9416 10.5993H42.9048L42.8508 10.6901C42.6908 10.6187 42.494 10.5474 42.2605 10.5474C41.653 10.5474 41.2422 10.9409 41.2422 11.5117C41.2422 12.1214 41.5816 12.4781 42.2065 12.4781C42.5113 12.4781 42.7254 12.37 42.8875 12.2641L42.9589 12.4241H43.0129V11.7798Z" fill="#231F20"/>
<path fill-rule="evenodd" clip-rule="evenodd" d="M44.0679 11.0467C44.0679 10.7613 44.0679 10.6705 44.3705 10.6705V10.5991H43.4062V10.6705C43.7089 10.6705 43.7089 10.7613 43.7089 11.0467V11.9764C43.7089 12.2639 43.7089 12.3526 43.4062 12.3526V12.4239H44.3705V12.3526C44.0679 12.3526 44.0679 12.2639 44.0679 11.9764V11.0467Z" fill="#231F20"/>
<path fill-rule="evenodd" clip-rule="evenodd" d="M45.9227 10.582H45.8881L45.834 10.7247C45.6913 10.6187 45.5119 10.5474 45.3519 10.5474C44.9757 10.5474 44.7595 10.7787 44.7595 11.0468C44.7595 11.7084 45.78 11.5484 45.78 12.05C45.78 12.2641 45.6373 12.3895 45.3692 12.3895C45.047 12.3895 44.8503 12.1387 44.8135 11.8338H44.7422V12.4241H44.7789L44.8676 12.2987C44.993 12.3895 45.1897 12.4781 45.3519 12.4781C45.7086 12.4781 46.0654 12.3181 46.0654 11.9052C46.0654 11.2609 45.047 11.3517 45.047 10.9041C45.047 10.742 45.1897 10.636 45.3692 10.636C45.6913 10.636 45.78 10.8501 45.8881 11.1009H45.9594L45.9227 10.582Z" fill="#231F20"/>
<path fill-rule="evenodd" clip-rule="evenodd" d="M48.2356 11.7798H48.1643C48.1102 12.05 47.9135 12.3895 47.52 12.3895C47.0011 12.3895 46.8584 11.9419 46.8584 11.5117C46.8584 11.0836 47.0184 10.636 47.52 10.636C47.8399 10.636 48.0735 10.8328 48.1448 11.1549H48.2162L48.1643 10.5993H48.1275L48.0735 10.6901C47.9135 10.6187 47.7167 10.5474 47.4832 10.5474C46.8757 10.5474 46.4627 10.9409 46.4649 11.5117C46.4627 12.1214 46.7848 12.4781 47.4291 12.4781C47.734 12.4781 47.9481 12.3722 48.1102 12.2641L48.1816 12.4241H48.2356V11.7798Z" fill="#231F20"/>
<path fill-rule="evenodd" clip-rule="evenodd" d="M50.666 11.5117C50.666 10.9409 50.2898 10.5474 49.6628 10.5474C49.0207 10.5474 48.625 10.9409 48.625 11.5117C48.625 12.0846 49.0207 12.4781 49.6628 12.4781C50.2898 12.4781 50.666 12.0846 50.666 11.5117ZM50.2725 11.5117C50.2725 11.9592 50.1104 12.3895 49.6455 12.3895C49.198 12.3895 49.038 11.9592 49.038 11.5117C49.038 11.0641 49.198 10.636 49.6455 10.636C50.1104 10.636 50.2725 11.0641 50.2725 11.5117Z" fill="#231F20"/>
<path fill-rule="evenodd" clip-rule="evenodd" d="M21.3846 19.096H21.6527L22.9587 14.9815C23.0841 14.5534 23.1922 13.9437 23.7629 13.9631V13.7837C23.4948 13.7837 23.2267 13.801 22.9587 13.801C22.6733 13.801 22.3857 13.7837 22.1003 13.7837V13.9631C22.4938 13.9977 22.7792 13.9977 22.7792 14.482C22.7792 14.7847 22.457 15.8593 22.3684 16.216L21.8322 17.9155H21.8127L20.5263 13.7837H20.2755L19.0582 17.9868H19.0409L18.2172 15.3036C18.1653 15.1069 17.9858 14.5166 17.9858 14.3393C17.9858 13.9804 18.4334 13.9804 18.6842 13.9631V13.7837C18.2907 13.7837 17.9145 13.801 17.521 13.801C17.1448 13.801 16.7686 13.7837 16.3945 13.7837V13.9631C16.6259 13.9804 16.8226 13.9804 16.9653 14.1599C17.0734 14.3026 17.1815 14.7134 17.2529 14.8928L18.6107 19.096H18.8809C19.095 18.4711 19.309 17.8614 19.5252 17.2366L20.1501 15.1069H20.1674L21.3846 19.096Z" fill="#231F20"/>
<path fill-rule="evenodd" clip-rule="evenodd" d="M25.1028 16.1988C25.1028 15.6259 25.1201 15.4464 25.7103 15.4464V15.3037C25.4076 15.3037 25.0855 15.3037 24.7633 15.3037C24.4412 15.3037 24.119 15.3037 23.7969 15.3037V15.4464C24.3871 15.4464 24.4044 15.6259 24.4044 16.1988V18.0582C24.4044 18.6312 24.3871 18.8106 23.7969 18.8106V18.9533C24.119 18.9533 24.4412 18.9533 24.7633 18.9533C25.0855 18.9533 25.4076 18.9533 25.7103 18.9533V18.8106C25.1201 18.8106 25.1028 18.6312 25.1028 18.0582V16.1988Z" fill="#231F20"/>
<path fill-rule="evenodd" clip-rule="evenodd" d="M29.9694 16.1815C29.9694 15.5372 30.1121 15.4464 30.631 15.4464V15.3037C30.3823 15.3037 30.1315 15.3037 29.8267 15.3037C29.5759 15.3037 29.3445 15.3037 29.0937 15.3037V15.4464C29.6126 15.4464 29.738 15.5372 29.738 16.1815V18.095H29.7186L27.4116 15.3037C27.1976 15.3037 26.9814 15.3037 26.7868 15.3037C26.59 15.3037 26.4279 15.3037 26.3025 15.3037V15.4464C26.536 15.4659 26.7868 15.5372 26.9295 15.7145V18.0777C26.9295 18.7198 26.8041 18.8106 26.2852 18.8106V18.9533C26.536 18.9533 26.7868 18.9533 27.0354 18.9533C27.323 18.9533 27.5738 18.9533 27.8224 18.9533V18.8106C27.3057 18.8106 27.1608 18.7198 27.1608 18.0777V16.0194H27.1803L29.738 19.0441H29.9694V16.1815Z" fill="#231F20"/>
<path fill-rule="evenodd" clip-rule="evenodd" d="M31.6839 18.0582C31.6818 18.6312 31.6645 18.8106 31.0742 18.8106V18.9533C31.3964 18.9533 31.7185 18.9533 32.0407 18.9533C32.845 18.9533 33.6687 18.9533 34.473 18.9533L34.5271 17.9523H34.3649C34.2417 18.7198 33.9001 18.8106 33.1671 18.8106C32.6309 18.8106 32.3801 18.6679 32.3801 18.255V17.1112C33.0785 17.1112 33.2752 17.1999 33.3098 17.7901H33.4547C33.4547 17.5047 33.4547 17.2539 33.4547 16.9685C33.4547 16.7004 33.4547 16.4302 33.4547 16.1621H33.3098C33.2752 16.8431 33.0785 16.9491 32.3801 16.9491V15.5545C32.3801 15.4832 32.4342 15.4486 32.5228 15.4464H33.2039C33.8287 15.4464 34.0255 15.5913 34.0968 16.2334H34.2417V15.3037C33.526 15.3037 32.685 15.3037 32.0407 15.3037C31.7185 15.3037 31.3964 15.3037 31.0742 15.3037V15.4464C31.6645 15.4486 31.6818 15.6259 31.6839 16.1988V18.0582Z" fill="#231F20"/>
<path fill-rule="evenodd" clip-rule="evenodd" d="M41.7777 13.7837H36.9648V15.001H37.1443C37.1789 14.0691 37.5551 14.0345 38.3248 14.0345C38.647 14.0345 38.9864 13.9977 38.9864 14.2312V17.9522C38.9864 18.5252 38.8783 18.7565 38.1108 18.7738V18.9533C38.5388 18.9533 38.9496 18.936 39.3626 18.936C39.7907 18.936 40.2383 18.9533 40.6685 18.9533V18.7738C39.8988 18.7565 39.7907 18.5252 39.7907 17.9522V14.2312C39.7907 13.9804 40.2556 14.0345 40.5604 14.0345C41.2934 14.0345 41.5809 14.2312 41.635 15.001H41.849L41.7777 13.7837Z" fill="#231F20"/>
<path fill-rule="evenodd" clip-rule="evenodd" d="M42.2777 18.0582C42.2755 18.6312 42.2777 18.8106 41.668 18.8106V18.9533C41.9901 18.9533 42.3123 18.9533 42.6344 18.9533C42.9566 18.9533 43.2787 18.9533 43.6009 18.9533V18.8106C43.0106 18.8106 42.9912 18.6312 42.9912 18.0582V17.308C43.2593 17.308 43.296 17.308 43.4582 17.5047L44.656 18.9533C44.8527 18.9533 45.03 18.9533 45.2095 18.9533C45.3889 18.9533 45.5857 18.9533 45.7651 18.9533V18.8106C45.4062 18.8106 45.2289 18.6139 45.0127 18.3458L43.9944 17.148C44.6906 17.1112 45.1208 16.7177 45.1208 16.2161C45.1208 15.5372 44.4398 15.3037 43.6355 15.3037C43.296 15.3037 42.9566 15.3037 42.6344 15.3037C42.3123 15.3037 41.9901 15.3037 41.668 15.3037V15.4464C42.2777 15.4464 42.2777 15.6259 42.2755 16.1988L42.2777 18.0582ZM42.9912 15.6086C42.9912 15.4464 43.2074 15.4464 43.3847 15.4486C43.9749 15.4464 44.3165 15.7513 44.3165 16.3069C44.3165 16.8064 43.9749 17.1285 43.2593 17.1285H42.9912V15.6086Z" fill="#231F20"/>
<path fill-rule="evenodd" clip-rule="evenodd" d="M47.7877 15.2153L46.7845 17.505C46.4818 18.1839 46.3737 18.8109 45.8008 18.8109V18.9536C46.017 18.9536 46.2483 18.9536 46.4818 18.9536C46.6959 18.9536 46.9294 18.9536 47.1607 18.9536V18.8109C46.9467 18.8109 46.6418 18.8109 46.6418 18.5428C46.6418 18.3633 46.7499 18.1298 46.8213 17.9158L46.9294 17.6477H48.3239L48.592 18.3633C48.6266 18.452 48.6634 18.5255 48.6634 18.6314C48.6634 18.8109 48.4299 18.8109 48.1445 18.8109V18.9536C48.4299 18.9536 48.7174 18.9536 49.0028 18.9536C49.3077 18.9536 49.5931 18.9536 49.898 18.9536V18.8109C49.4331 18.8109 49.3963 18.5968 49.2169 18.1493L48.0018 15.2153H47.7877ZM47.0526 17.4336L47.6623 16.0023L48.2353 17.4336H47.0526Z" fill="#231F20"/>
<path fill-rule="evenodd" clip-rule="evenodd" d="M51.006 18.0582C51.006 18.6312 50.9887 18.8106 50.3984 18.8106V18.9533C50.7206 18.9533 51.0427 18.9533 51.3627 18.9533C51.7216 18.9533 52.0611 18.9533 52.4005 18.9533C53.6718 18.9533 54.5302 18.2917 54.5302 17.148C54.5302 16.0021 53.6718 15.3037 52.4005 15.3037C52.0784 15.3037 51.6676 15.3037 51.2914 15.3037C50.9887 15.3037 50.7011 15.3037 50.3984 15.3037V15.4464C50.9887 15.4464 51.006 15.6259 51.006 16.1988V18.0582ZM51.7043 15.6432C51.7043 15.4464 51.7389 15.4464 52.2211 15.4464C53.3497 15.4464 53.7259 16.2334 53.7259 17.2539C53.7259 18.2031 53.4556 18.8106 52.4005 18.8106C52.0243 18.8106 51.7043 18.7198 51.7043 18.2917V15.6432Z" fill="#231F20"/>
<path fill-rule="evenodd" clip-rule="evenodd" d="M56.5325 16.1988C56.5325 15.6259 56.5519 15.4464 57.1422 15.4464V15.3037C56.82 15.3037 56.4979 15.3037 56.1757 15.3037C55.8536 15.3037 55.5487 15.3037 55.2266 15.3037V15.4464C55.8168 15.4464 55.8363 15.6259 55.8363 16.1988V18.0582C55.8363 18.6312 55.8168 18.8106 55.2266 18.8106V18.9533C55.5487 18.9533 55.8536 18.9533 56.1757 18.9533C56.4979 18.9533 56.82 18.9533 57.1422 18.9533V18.8106C56.5519 18.8106 56.5325 18.6312 56.5325 18.0582V16.1988Z" fill="#231F20"/>
<path fill-rule="evenodd" clip-rule="evenodd" d="M61.3991 16.1815C61.3991 15.5372 61.5245 15.4464 62.0607 15.4464V15.3037C61.7926 15.3037 61.559 15.3037 61.2564 15.3037C61.0056 15.3037 60.772 15.3037 60.5212 15.3037V15.4464C61.0228 15.4464 61.1655 15.5372 61.1655 16.1815V18.095H61.1482L58.8413 15.3037C58.6251 15.3037 58.411 15.3037 58.2143 15.3037C58.0175 15.3037 57.8575 15.3037 57.7321 15.3037V15.4464C57.9635 15.4659 58.2143 15.5372 58.357 15.7145V18.0777C58.357 18.7198 58.2316 18.8106 57.7148 18.8106V18.9533C57.9635 18.9533 58.197 18.9533 58.4478 18.9533C58.7526 18.9533 59.0013 18.9533 59.2521 18.9533V18.8106C58.7332 18.8106 58.5905 18.7198 58.5905 18.0777V16.0194H58.6078L61.1655 19.0441H61.3991V16.1815Z" fill="#231F20"/>
<path fill-rule="evenodd" clip-rule="evenodd" d="M65.9068 15.5007C65.5673 15.3407 65.1911 15.2153 64.7068 15.2153C63.509 15.2153 62.668 15.9656 62.668 17.1288C62.668 18.3633 63.3296 19.0444 64.6182 19.0444C65.4765 19.0444 65.7446 18.6314 66.4257 18.5968V17.9871C66.4257 17.665 66.5857 17.6131 66.9251 17.6131V17.4509H65.1738V17.6131C65.5306 17.6131 65.7273 17.719 65.7273 18.0779C65.7273 18.452 65.496 18.8822 64.7803 18.8822C63.7598 18.8822 63.4744 18.0066 63.4744 17.1288C63.4744 16.2704 63.7944 15.358 64.7976 15.358C65.4419 15.358 65.8895 15.7883 66.0495 16.4131H66.1749L66.0862 15.304H65.9954L65.9068 15.5007Z" fill="#231F20"/>
<path fill-rule="evenodd" clip-rule="evenodd" d="M73.7934 14.1774C73.2572 13.8379 72.8464 13.6758 72.2021 13.6758C70.6108 13.6758 69.4648 14.839 69.4648 16.4303C69.4648 18.0238 70.5394 19.0443 72.1307 19.0443C72.8096 19.0443 73.3458 18.8821 73.8669 18.4518L74.0442 18.8648H74.1523V17.1481H74.0096C73.7761 18.0778 73.3826 18.8648 72.2734 18.8648C70.8962 18.8648 70.4486 17.613 70.4486 16.4303C70.4486 15.2498 70.8616 13.8552 72.2734 13.8552C73.1685 13.8552 73.7934 14.4822 73.9188 15.3406H74.0982L74.0442 13.8012H73.9188L73.7934 14.1774Z" fill="#231F20"/>
<path fill-rule="evenodd" clip-rule="evenodd" d="M78.8572 17.1288C78.8572 15.985 78.0702 15.2153 76.8184 15.2153C75.547 15.2153 74.7773 15.985 74.7773 17.1288C74.7773 18.2747 75.547 19.0444 76.8184 19.0444C78.0702 19.0444 78.8572 18.2747 78.8572 17.1288ZM78.0508 17.1288C78.0508 18.0239 77.7286 18.8822 76.8184 18.8822C75.8887 18.8822 75.5838 18.0239 75.5838 17.1288C75.5838 16.2337 75.8887 15.358 76.8184 15.358C77.7286 15.358 78.0508 16.2337 78.0508 17.1288Z" fill="#231F20"/>
<path fill-rule="evenodd" clip-rule="evenodd" d="M82.0415 18.0409L80.7551 15.3037C80.5215 15.3037 80.3075 15.3037 80.0935 15.3037C79.8794 15.3037 79.6632 15.3037 79.4491 15.3037V15.4464C79.7886 15.4464 80.074 15.5718 80.074 16.0194V18.0777C80.074 18.7198 79.9508 18.8106 79.4297 18.8106V18.9533C79.6805 18.9533 79.914 18.9533 80.1648 18.9533C80.4675 18.9533 80.7183 18.9533 80.9691 18.9533V18.8106C80.4502 18.8106 80.3075 18.7198 80.3075 18.0777V15.8399H80.3248L81.7388 18.9166H81.8275L83.2761 15.894H83.2955V18.0582C83.2955 18.6312 83.2761 18.8106 82.6858 18.8106V18.9533C83.008 18.9533 83.3301 18.9533 83.6523 18.9533C83.9744 18.9533 84.2966 18.9533 84.6187 18.9533V18.8106C84.0112 18.8106 83.9917 18.6312 83.9917 18.0582V16.0194C83.9917 15.5718 84.2793 15.4464 84.636 15.4464V15.3037C84.4047 15.3037 84.1885 15.3037 83.9917 15.3037C83.7604 15.3037 83.5463 15.3037 83.3128 15.3037L82.0415 18.0409Z" fill="#231F20"/>
<path fill-rule="evenodd" clip-rule="evenodd" d="M86.4599 17.2539C86.6221 17.2712 86.728 17.2712 86.8902 17.2712C87.8026 17.2712 88.6069 17.0572 88.6069 16.2875C88.6069 15.5718 87.9085 15.3037 87.0869 15.3037C86.7648 15.3037 86.4426 15.3037 86.101 15.3037C85.781 15.3037 85.4589 15.3037 85.1367 15.3037V15.4464C85.7443 15.4464 85.7443 15.6259 85.7443 16.1988V18.0582C85.7443 18.6312 85.7443 18.8106 85.1367 18.8106V18.9533C85.4589 18.9533 85.781 18.9533 86.101 18.9533C86.4232 18.9533 86.7453 18.9533 87.0675 18.9533V18.8106C86.4772 18.8106 86.4599 18.6312 86.4599 18.0582V17.2539ZM86.4599 15.6086C86.4599 15.4464 86.674 15.4464 86.8707 15.4464C87.461 15.4464 87.8026 15.6432 87.8026 16.2702C87.8026 16.9145 87.4804 17.1285 86.8707 17.1285C86.7648 17.1285 86.6394 17.1112 86.4599 17.1112V15.6086Z" fill="#231F20"/>
<path fill-rule="evenodd" clip-rule="evenodd" d="M90.6098 15.2153L89.6088 17.505C89.3039 18.1839 89.2153 18.8109 88.625 18.8109V18.9536C88.8585 18.9536 89.0899 18.9536 89.3039 18.9536C89.5374 18.9536 89.7687 18.9536 89.985 18.9536V18.8109C89.7882 18.8109 89.4834 18.8109 89.4834 18.5428C89.4834 18.3633 89.5915 18.1298 89.6628 17.9158L89.7687 17.6477H91.1655L91.4336 18.3633C91.4703 18.452 91.4876 18.5255 91.4876 18.6314C91.4876 18.8109 91.2541 18.8109 90.9687 18.8109V18.9536C91.2736 18.9536 91.559 18.9536 91.8444 18.9536C92.1492 18.9536 92.4346 18.9536 92.7395 18.9536V18.8109C92.2746 18.8109 92.24 18.5968 92.0411 18.1493L90.8433 15.2153H90.6098ZM89.8769 17.4336L90.4844 16.0023L91.0574 17.4336H89.8769Z" fill="#231F20"/>
<path fill-rule="evenodd" clip-rule="evenodd" d="M96.8348 16.1815C96.8348 15.5372 96.9775 15.4464 97.4964 15.4464V15.3037C97.2456 15.3037 96.9948 15.3037 96.6921 15.3037C96.4413 15.3037 96.2078 15.3037 95.957 15.3037V15.4464C96.4759 15.4464 96.6013 15.5372 96.6013 16.1815V18.095H96.584L94.2943 15.3037C94.0608 15.3037 93.8468 15.3037 93.65 15.3037C93.4533 15.3037 93.2933 15.3037 93.1679 15.3037V15.4464C93.3992 15.4659 93.65 15.5372 93.8122 15.7145V18.0777C93.8122 18.7198 93.6673 18.8106 93.1484 18.8106V18.9533C93.3992 18.9533 93.65 18.9533 93.9008 18.9533C94.1862 18.9533 94.437 18.9533 94.6878 18.9533V18.8106C94.1689 18.8106 94.0435 18.7198 94.0435 18.0777V16.0194H94.0608L96.6013 19.0441H96.8348V16.1815Z" fill="#231F20"/>
<path fill-rule="evenodd" clip-rule="evenodd" d="M97.8945 15.4486C98.3226 15.5372 98.3053 15.5199 98.5388 15.9134L99.5031 17.522V18.0582C99.5031 18.6312 99.4858 18.8106 98.8956 18.8106V18.9533C99.2177 18.9533 99.5399 18.9533 99.8447 18.9533C100.167 18.9533 100.487 18.9533 100.809 18.9533V18.8106C100.219 18.8106 100.201 18.6312 100.201 18.0582V17.4161L101.239 15.8594C101.401 15.6259 101.544 15.4832 101.901 15.4464V15.3037C101.67 15.3037 101.453 15.3037 101.222 15.3037C100.988 15.3037 100.757 15.3037 100.541 15.3037V15.4464C100.738 15.4832 101.008 15.4659 101.008 15.734C101.008 15.9134 100.9 16.0561 100.757 16.2529L100.093 17.2539L99.4685 16.2334C99.3604 16.0561 99.235 15.8399 99.235 15.6626C99.2177 15.5005 99.4145 15.4464 99.702 15.4464L99.6999 15.3037C99.3972 15.3037 99.0923 15.3037 98.7875 15.3037C98.5021 15.3037 98.1994 15.3037 97.8945 15.3037V15.4486Z" fill="#231F20"/>
<path fill-rule="evenodd" clip-rule="evenodd" d="M102.024 10.6533V11.6911H51.5977V10.6533H102.024Z" fill="#006F53"/>
<path fill-rule="evenodd" clip-rule="evenodd" d="M15.0679 8.88232V19.2215H4.74609V8.88232H15.0679Z" fill="#006F53"/>
<path fill-rule="evenodd" clip-rule="evenodd" d="M11.562 11.2977C11.562 10.7961 11.9728 10.3853 12.4744 10.3853C12.9738 10.3853 13.3868 10.7961 13.3868 11.2977C13.3868 11.7993 12.9738 12.2101 12.4744 12.2101C11.9728 12.2101 11.562 11.7993 11.562 11.2977ZM8.32315 15.4835C8.2518 15.5008 8.18045 15.5203 8.0918 15.5376C8.16315 15.5548 8.2518 15.5721 8.32315 15.5916V15.4835ZM8.3772 12.8003L8.0918 12.8717C8.18045 12.889 8.28856 12.9084 8.3772 12.9084V12.8003ZM8.3945 11.6739L8.28856 11.7085C8.32315 11.7279 8.3599 11.7452 8.3945 11.7625V11.6739ZM8.30585 10.4393C8.28856 10.4566 8.27126 10.4566 8.2518 10.4739L8.32315 10.528L8.30585 10.4393ZM8.59125 11.0836C8.628 11.0642 8.66476 11.0296 8.71665 11.0123C8.66476 10.9755 8.628 10.9409 8.57395 10.9042C8.57395 10.9755 8.59125 11.0296 8.59125 11.0836ZM8.628 13.4273C8.75341 13.4273 8.87881 13.4079 9.00421 13.3733C8.8961 13.3192 8.7707 13.3192 8.66476 13.3019H8.628V13.4273ZM8.59125 15.09C8.71665 15.09 8.84205 15.1073 8.98475 15.09C8.86151 15.0359 8.71665 14.9819 8.59125 14.93V15.09ZM7.14265 15.7516C7.5902 15.8943 7.94911 15.9483 8.32315 15.9851V15.9138C8.1091 15.8402 7.89505 15.7689 7.66155 15.6803L7.41075 15.2867C7.75236 15.1246 8.03775 15.09 8.32315 15.09V14.8392C8.09181 14.7505 7.8583 14.6792 7.5729 14.6251L7.3221 14.2316C7.6983 14.463 8.02046 14.4457 8.32315 14.3398L8.34261 14.2316C8.14586 14.1949 7.9664 14.1235 7.76965 13.9808L7.51885 13.5873C7.82371 13.4273 8.0918 13.4273 8.3599 13.4273V13.2652C8.19775 13.2306 8.05505 13.1592 7.91235 12.9603L7.66155 12.5668L7.64425 12.5322C7.94911 12.4609 8.16315 12.3701 8.3945 12.2987V12.102C8.32315 12.0306 8.27126 11.9247 8.1264 11.7625L7.8756 11.369C8.07235 11.315 8.21721 11.2609 8.3772 11.1896C8.3599 11.0469 8.3599 10.9042 8.34261 10.7615C8.27126 10.7074 8.18045 10.6707 8.0918 10.5993L8.001 10.1885C8.19775 10.0458 8.2345 9.92043 8.2691 9.56152L8.5199 9.95502C8.5199 10.0631 8.48531 10.1345 8.46585 10.2058L8.48531 10.2426C8.5026 10.4026 8.5372 10.5474 8.55666 10.6901C8.628 10.7615 8.71665 10.8328 8.82475 10.9215L9.07556 11.315C8.9134 11.4404 8.7707 11.529 8.628 11.5831C8.628 11.6912 8.6453 11.7798 8.6453 11.8879C8.788 11.9593 8.93286 12.0306 9.09285 12.1733L9.34366 12.5668C9.23555 12.5863 8.96745 12.6576 8.6453 12.729V12.943C8.788 12.9798 8.95016 13.0511 9.0561 13.2306L9.3069 13.3019C9.32636 13.3192 9.41501 13.5333 9.4323 13.5873C9.28961 13.6241 8.84205 13.8554 8.71665 13.8727C8.93286 13.8554 9.39771 13.8208 9.64635 13.9268L9.89715 14.3203C9.4323 14.3203 9.0561 14.5343 8.68206 14.6792C8.93286 14.7851 9.1815 14.8932 9.45176 14.9819C9.7004 14.8219 9.93391 15.09 10.2366 15.1441L10.4874 15.5376C10.202 15.5008 9.93391 15.4467 9.7004 15.3581C9.68311 15.3754 9.64635 15.4122 9.62905 15.4294C9.23555 15.5203 8.9134 15.4835 8.61071 15.4835C8.61071 15.5376 8.61071 15.6089 8.628 15.663C8.9134 15.7343 9.21826 15.7689 9.52311 15.7884C9.66581 15.7689 9.79121 15.7689 9.93391 15.7689C10.0766 15.7689 10.202 15.7689 10.3815 15.7884C10.4528 15.7884 10.5069 15.7884 10.5588 15.7884L10.829 16.1819H10.6669C10.3447 16.1992 10.0593 16.1992 9.80851 16.1819L9.93391 16.3786C9.48636 16.3786 9.12745 16.3959 8.7707 16.3786C8.82476 16.61 8.87881 16.8608 8.8961 17.1289C9.1815 17.0207 9.45176 16.9494 9.73716 16.9494C10.2734 16.9494 10.7036 17.0575 11.1144 17.237L12.2603 17.7018C12.8852 17.9699 13.4387 18.4002 14.1911 18.865L13.0473 18.3807C12.5457 18.0586 12.1155 17.7732 11.7047 17.5224C11.4539 17.4683 11.1858 17.4337 10.8809 17.4337C9.52311 17.4337 8.82476 18.2921 7.50155 18.7029L5.58594 18.8996C6.42699 18.6488 7.3221 17.9353 8.19775 17.451C8.2518 17.1289 8.28856 16.7354 8.30585 16.3419C8.02046 16.3073 7.7329 16.2337 7.41075 16.1278L7.14265 15.7516Z" fill="white"/>
</g>
<defs>
<clipPath id="clip0_280_65429">
<rect width="69.1359" height="26.5907" fill="white" transform="translate(268.863 0.73877)"/>
</clipPath>
<clipPath id="clip1_280_65429">
<rect width="129.999" height="28.5998" fill="white" transform="translate(121.875)"/>
</clipPath>
<clipPath id="clip2_280_65429">
<rect width="107.102" height="28.6434" fill="white"/>
</clipPath>
</defs>
</svg>
